<mxfile host="65bd71144e">
    <diagram id="rukNij8qupWstxS37dPg" name="ページ1">
        <mxGraphModel dx="1270" dy="1950" grid="1" gridSize="10" guides="1" tooltips="1" connect="1" arrows="1" fold="1" page="1" pageScale="1" pageWidth="827" pageHeight="1169" math="0" shadow="0">
            <root>
                <mxCell id="0"/>
                <mxCell id="1" parent="0"/>
                <mxCell id="2" value="" style="shape=image;verticalLabelPosition=bottom;labelBackgroundColor=#ffffff;verticalAlign=top;aspect=fixed;imageAspect=0;image=data:image/png,iVBORw0KGgoAAAANSUhEUgAAAPsAAAD7CAYAAACscuKmAAAAOXRFWHRTb2Z0d2FyZQBNYXRwbG90bGliIHZlcnNpb24zLjMuNCwgaHR0cHM6Ly9tYXRwbG90bGliLm9yZy8QVMy6AAAACXBIWXMAAAsTAAALEwEAmpwYAAAm00lEQVR4nO2dbaxlZXXH/8sBBIYZmBmQTBim0IgaPtQBJ6jRmAGrodbIF2N8SUMbkvliG0xtBNqk0aZN9IsvHxqTSbXywYpvtRBiVDqFNDUNOhZUXkSQooDAOFcGhkF5c/XD2ed0neVd//ucc+/dZ2T/f8lk9jl772ev/ez93LPWs14ec3cIIV78vGTRAggh+kGDXYiBoMEuxEDQYBdiIGiwCzEQNNiFGAirGuxmdqmZ3WNm95nZ1WsllBBi7bF5/exmtgHAjwG8BcBDAL4L4D3uftfaiSeEWCuOW8W5FwG4z93vBwAzuw7AZQDKwX766af7zp070R0/ta/1j04+ryK3F89b60CiRQYm5f74zW9+s+w+dtxKbVbE+573ea5FG/Fe8jnVfebv47Vf8pJphTd+zjK2vlfsPqv2Wp9DPPZnP/sZlpaWlj1xNYP9LAAPhs8PAXgtO2Hnzp349re/DeC3O5S9fHHfCSec0HTO888/P/V5w4YNy+5jHZofXvXAXnjhhbINBnu52UvEXsxnnnlm2X3HH3/81HFPP/10KcdLX/rSyXa8t3xc7MfYv0D9bPK9PPvss5Pt+Gzzvki+51/96lflOfE+4738+te/njou9s9JJ500te+UU05Z9rgsS2yfycjaiH2Qj4vkZzHu/z179pTnrPsEnZntNbMDZnbg0KFD6305IUTBan7ZHwZwdvi8o/tuCnffB2AfALzmNa/x8V+k/JfpuOP+X5Tnnntual/8yxd/TfJfT/YLW/3S5GvFv6ZMJYy/ZFmOVvU5yxv7IMK0lFZ1NLdx8sknT7bzr2H8HGXK/RHbZ1pQJR9Qa1zLHTvmyJEjU5/jeU888cTUvviLGrUe9txzn8b73Lhx49S++AzjrzK7l3ztqEnFazM5Wvt76vwVj6j5LoDzzOxcMzsBwLsB3LCK9oQQ68jcv+zu/ryZ/TmAbwLYAOCz7n7nmkkmhFhTVqPGw92/DuDraySLEGIdWdVgn4ex3TGLuyoeG+0WZrO32jvZLmR2f3VelqOyeVdqv7LX8jnxc54Fr+SYZX4jHhvtyzw7zLwh1fPN12VzMFF+dq0nn3xysh1tdABYWlpato1sU2/evLmUMd5LnsXPHoQKNvdR2ezs2c7j7lW4rBADQYNdiIGwMDU+q2WVqp4/x/OyC2Me9TxfixFVMRZQEsluraj2ZZUwtsPUNBbQU/UBMyeyShvVytgeuxZzU8Zrt5oP+XPsx6eeemrquLgv92kV6JIDZ6Irkqnm2ZSp+oe5KU888cSpfdElGPuevTtVgBN7b/TLLsRA0GAXYiBosAsxEHq32cd2TbYtWLhspNWWzXYoSyqItCbksJBVNv8Q743NFzA54rWzXRevzUJRWT9GGVszr7K8lauJXTfLWPUBC7nNfbp169bJdryvaBsDwJYtWybbbG6idY4ky8GeReUWznNB0bbP7/P4WPa89MsuxEDQYBdiIBwzrjcWSVVFlmWVkOUTR6o8aWC+Ihcssy2rYszUqHKjcxtMza4KLWTXG4vyqwpgsAy7rN7G9plqysyhKFdsL7uu4nl5X+yreFx2vcV9zL2W3514PZbtWLnXgNrlyswaVkSjQr/sQgwEDXYhBkLvavxYFWHFA1jiR1RTs0rI1MVKdZ9FBY/7olrGjmNyZHWxKoTAinmwSK1WD0drIQemxrNnEcnPNp6XI9eOHj062Y7qck52ifvicwGm1XXmFWjdl4nyMxOQRb9Vs/1Z3Y9U0XWKoBNCaLALMRQ02IUYCL3a7O4+cScwO3feqK1oF2W7rtWlxtwn0Z5iEXms0GPlXmNysL7K91K5MFvLVud9zBXEsv2qTDcmLys4EsnysvLLMQuOFX2MNnB+LtHuz3Z0bCfKkfuGPffYV6xPq/kYYP0LTgohfofQYBdiIBwzEXRVYQiAR1lFopqW1bnYZlR5WLRUazJNVglZsYa4j7neWpcLympl7J+omra6e4D2en1VhFuWo7puPi/3R3SjxfOYicYKT7D3o1p1CJju49wH0e1XFVnJ+3Ib8f2p1g7I5/VdN14I8TuEBrsQA0GDXYiB0KvNbmYTuyPbifOsWpqPi7Zc67K7rBhBtrvi59Z1t7JtGK+diyNG4nnZHo52HWuDFcVkhRaqLK9ZVpOtXGrZJo3y5zmS+GzYmgDMpdY69xFtbxbqysKC4xxDtvtZFmP1PrJw2XXJejOzz5rZQTO7I3y31cxuMrN7u/+3sDaEEIunRY3/HIBL03dXA9jv7ucB2N99FkIcw6yoxrv7f5rZOenrywDs6bavBXALgKsa2pqoalnNYRF0lVqZVWS2xE7VPrsWc5+wZZGyOlrtY6oYKzzRWlAiqossooupvnE7q5WVa2w5ucY8/fTTpbzZJKlch8xVmGWsngUrIDHLOgDx2cd3mrmWmXnYuuxzZtzGemS9nenuj3TbjwI4c852hBA9serZeB/9KSn/nJjZXjM7YGYHDh06tNrLCSHmZN7Z+MfMbLu7P2Jm2wEcrA50930A9gHAhRde6JWa0Vr2OKpNrPAEi7SLamCLarScjJEsL6un17rMFUuSiapkVkdzdFnVHpOjWv2Vzfwz1ZQlu8TPuf1qxV4WyZfvJS7rNG/9QmYmVLXlWA3EbDZV6j8zBaoiIOtRSvoGAJd325cDuH7OdoQQPdHievsCgP8G8Eoze8jMrgDwUQBvMbN7Afxh91kIcQzTMhv/nmLXm9dYFiHEOtJ7BN3YPsl2C4uga11Wmdl1EZbZxuy/aCcxV0q07VmBxVmKQVRkG72aq8iuzioLEKgj0ljt+dxGay10NjdRuVKzHLlWfCSeF/uA3TMreMpcdnHOIcvIohkrN+gs2XHKehNCTNBgF2Ig9F6DbqyKsPpurSo4W+Uy01rjjrnsqmgsFuGW1WdWv71y4zC3WaZy3+W+aa39xurHVYkqmXjPzFRh0YyxH5lrjNX8Y3Kw9yq2mc2m+JxYAZbWwirVOflzlmPjxo0AVDdeCAENdiEGgwa7EAOhd9fb2F5h7ipm7zA7tDVzKcLs0Ey0tZjtzYo5xs/MDdXqqsn2X8wqY8tDx75j8xSRLEe0o/N9VqG1LHy4tRZ/Pq4Kq83tR9hS1xm2DmHsR+a2jZ9z5l8khvfma7F5lnF/y2YXQmiwCzEUene9VUn2US3OKlBV6yyrlVHdqrK/gGl1qLVOdz6P1T2jmUdkCZ/qPFavL6uEVWRcljGqn7m/KxMoyxf7OLsYqwjDWdyUkVaXKKsHz9T9CCvmkeWv3H7MjGRuv1Z3ZmYcRbgeWW9CiN8xNNiFGAjHTCnpqNqwcsPxOBaJxNS5SFbZ4nmsRHSUP6ufUcbsMYifszpXtcmKY+T2qxn4fFy8b/YsNm3aNNnOqm9MQGldgZWVUc5UiU2zJB5Vdf1mqe/GVP6qxDXrj/x+s2dRtZGTf1o8KvplF2IgaLALMRA02IUYCAvLemPFDlhBiQiLCmOFAZntE9vMNcLjeSzSKdpg2ZZidekr+5JF+TEXJrMhYxt5fqOygVkkH4tIY1lp8dpZxqpwJ7P78zOrClaw94/Z73mOp5KLPVvWB6y/2bzW+L4VQSeE0GAXYij0qsZHsurIIroq9YvVD2fqXFTFcqRdVJWySy1eO0auzbIMVWw/32dVQ50VMcgqYWwj3mfuD1a3LcrFkl0ibOVTtropcxnFfUzdr6LksswsUYoVN2ldiqu6LtCe8BPbZ4le1XulCDohhAa7EENBg12IgdC7zT62KbLdxQoEVC6N1prjwLT9w67F3EmVu4rJ0epOAupMqdxGnGfItni006Ndnl1Gsc2TTjpp2etmGVk9/yx7vB7LZmP2cGy/1aZuLVrS6t4F2uu1V9mZGfZexftky09XdelX5Xozs7PN7GYzu8vM7jSzK7vvt5rZTWZ2b/f/lpXaEkIsjhY1/nkAH3T38wG8DsD7zex8AFcD2O/u5wHY330WQhyjtKz19giAR7rtI2Z2N4CzAFwGYE932LUAbgFw1QptlcUrolrCVCUWBdWaGcXqh89TW44t9ZNh9c+r5ZRYLfTWJYKyq40tD13VJ8/qPis4UhWvyHJUGY1AXQyCqcEMZjKwyEZmDlXvHMtoZPXx2TtcuVWXa3M5ZpqgM7NzAFwA4FYAZ3Z/CADgUQBnztKWEKJfmge7mZ0C4KsAPuDuT8Z9PvrTtOzMgJntNbMDZnZgaWlpVcIKIeanabCb2fEYDfTPu/u/dl8/Zmbbu/3bARxc7lx33+fuu91997Zt29ZCZiHEHKxos9vIGPgMgLvd/eNh1w0ALgfw0e7/62e5cLbxmJ1bZVCxbLNsw0R7p7Wue94Xbbe4j2VCZbdTtFHzPUebPbpdcg12VoEmMm91lyhzPC+7+VqzvCJHjhwpr9W6Vh/LvstUMrKw2nwv8b6Zu5S5vVr7imUqxnkG5jKuaPGzvwHAnwD4oZnd3n331xgN8i+Z2RUAfgrgXQ1tCSEWRMts/H8BqKb63ry24ggh1oveI+jGqg7LBsvqYhU1l9uIUW25jcq1wpZ9zu6ZStVjBTCyuhVlzOp5pVrnNqJcOcqqMjVYXXeWAcZcgKy/K1cZyxpjpkaERb+1qsjMncnMBBYRGbdZEdJWVypbHoxFG1YoNl6IgaDBLsRA6F2Nr4oVRBWFFa9gx0VVkhVFYKopq/MVP8fIsnwtljjROovPIvmYGcJU2ki1lFUmmgW50AdbkTaaKFGlzYUbYhvZHKqSeljEXya+EyxJhkW4sVr/lQrOvEFs+ScWKRj7gJmpFfplF2IgaLALMRA02IUYCL3Xja9cb9HWZK6V1oilTOVSy22w4hiV7Zbt6yoCLR/LlkBm9naUg0VSRRsv9ymTMbYZI96yOynK25J1Bfx2X7ECi1GuuI9ljbGa8q2FQ3L7VbFSoC6EOUtxzupZ53s5evToZJsta16hX3YhBoIGuxADofclm8fqB1uGOFOp4GxppZXkqNqIZFdThJkCLHGCLYUU5WKJGZFcUCKeF+WfRQWvkjayms0KW1Tys+WKWXRd61LazGXJauGxGndVRCEw3QdsWWb2bsYoyPju5Dai/Dn6ctyG6sYLITTYhRgKGuxCDISFrfU2iy1b2VOseEVrQUEWesnCZZmNF+0pViQhX7uyDZmbkrnNckZcdVxcfhqYts2rrK7cRrbnq1DXXLwiXptlg0VY2Cvbx+x5ljXGnkVVqITNx+T3JbrUWHHLeO08RyLXmxBigga7EAOhdzW+cr21nANMq8jz1kRjS/0wtxlzxUWi+szUORbtFeWIy0MDwKZNmybbOYusyhBkRReiGpmvHcnHRbIaH+Wo3FMArxsf761yw+V9zI3IjovvBDO9WEYmK3LB3s34vlTt5fOyOTGWcVXLPwkhXhxosAsxEBZWvILNxrMZ8rjNIqJY7beowrKkBBqNVJS3Bri6y1ZFjfcTVek8W84KLUSqZZzytbPaXpW7zlFbrGR2FTWX77m1SAeLImQz8PG5x2tlUyDKmPsj9vcpp5wytS+aL7F/Wt8doL14BSs4Mj5PEXRCCA12IYaCBrsQA2FhEXSzUNkhrJBAtruqTLccZcZcJFXWEXPltdZkB2rXHsvuy3MTcV8VCQdwF2bs1yhTnouI0V7Zlq3I/R2vzexNFnkY28xFK2P78fkxe5gtP83mGFrr17M1E9g8BXs32bzFmBV/2c3sRDP7jpl938zuNLOPdN+fa2a3mtl9ZvZFM6tny4QQC6dFjX8GwCXu/moAuwBcamavA/AxAJ9w95cDeBzAFesmpRBi1bSs9eYAnuo+Ht/9cwCXAHhv9/21AD4M4NOsLTObqDo54oqpOa21ueN5WZ2rlo1itduZityajNG6sidQq5KsPzLVEke5jdj/+VnEZJWlpaXJdu4rlsQSn02M+GOwyDhWo7Aq/pDPi/eZ3ZlseSa27FIVEZn7lLn2YhvxvWVJTtUKr6t2vZnZhm4F14MAbgLwEwCH3X3cKw8BOKulLSHEYmga7O7+grvvArADwEUAXtV6ATPba2YHzOzAoUOH5pNSCLFqZnK9ufthADcDeD2A08xsrJvsAPBwcc4+d9/t7rtPP/301cgqhFgFK9rsZnYGgOfc/bCZnQTgLRhNzt0M4J0ArgNwOYDrV2rL3Sd2R7Y7Y2ZXayEBVrwwt1GFGma7mS0JXbnYsv0Ubc+csRZdVE899dTUvqqAB8vCykR7MMrxy1/+cuq4aJc/8cQTU/t+/vOfT7bvv//+yXbuj61bt0628x/y+Jmt9cZq28cCDfHZ5uOi/c1sarZMNetvls1WuQ6zHGwp8Gq9gCwjmwtqKV7R4mffDuBaM9uAkSbwJXe/0czuAnCdmf09gNsAfKahLSHEgmiZjf8BgAuW+f5+jOx3IcTvAL1H0FXLP7EldioVa5YookrFYtFprcUDWIZddgFGdS6rtFVmFyvSwYqAVNlrWeaDBw9O7XvggQcm27fddttkO6v7O3funGy/4hWvmNoXVevoGtu4cePUcfFZ5+i6aqms3G+sqEhsk7kzY58yMylTtcmW28rtV+8tcwvnLENlvQkhJmiwCzEQel/Fdayq5hnJOGudVZGovkSVJ89mVyt2Anz5oEhsP6tK1UqiWf2M7ed91fJMwLTaxswJVniiKpNd1SwDfrsoxeHDhyfbcRY/x0nEyLjWum35Wps3b55st5buztdiJbMrtZb1R26PFY2oIvvyccw0qIqw5PuMz7ryJqgGnRBCg12IoaDBLsRAWFjByWxrMtdElcnFCkOwDKqqLnqWgxGPY1lp+V7i5+yWizZ7vLfsgol277yFGON5p5122tS+l73sZZPtGPGXC1ScffbZk+0cQRf7J9rA2S5vzTJkzy/eS5axmsNoXTsA4G7ham4ltx/fW3ZtVkw0L/kUketNCDFBg12IgbCwGnSsXnsmqkBRlWFLDjEVv4qqym3mfVGdi6oYc6swtYrVM4tysOMyLLIvwurH7dixY7J98cUXl21E1f2MM86Y2heTZOK1sioazS3W363mClsJNj4z9lzYUln5vEqu/G4ys69yU+b+aCncItebEEKDXYihoMEuxEBY2JLNzA5l4afRLZJtUramWLQNmS3L3CKVDcmKHeT7jPYlC4eMcuSw2soVma/HXEHxXk499VRUbNmyZdnrAtMZbNllWdVyz+7GKH9uIz5D5pptnauJ5OfC3h32vlRh2Ln96tkCdTEVVlCV1b2v0C+7EANBg12IgbAw1xurr5XVpqpu/CzqVoS5cWL7rHgF+75ypQDTal/OAIuqalTds3rLIgArN1RWK6vloYFptZ7VPYtt5OcZi1ewohHxOOY2qmrrAdPuPJZtFrdZNFqWg6nP0cUWTRQWKTjL84wwV2RLDTr9sgsxEDTYhRgIvarxZjZR97KqxJYqijAVPKp3rao1m9FnqlFUvdjKpEzdYhFSrYk2mSoCMBaJyPvyfVaRWkyNz7PBsR/ZTDq7l+raWd743LM5Mc/SYbNQlf/OxOuxZBpWZCX2XWUGKxFGCKHBLsRQ0GAXYiD0XnBybM9m2y26QrIroiqcmO1hFjFW2X/ZDVIVO8j7mKuQ2bkRtkRQ672w4pxR3txX8Vp5ziHeW1UrH5juO7YEMiuiUbnG8nlxX87Sq4p+ALXbL2elMdubzZ9UkZmzFDRpXeI7vgdsrqOi+Yxu2ebbzOzG7vO5Znarmd1nZl80s7YSL0KIhTDLn4crAdwdPn8MwCfc/eUAHgdwxVoKJoRYW5rUeDPbAeCPAfwDgL+0ke54CYD3dodcC+DDAD69UluV6y1GjGXVlKmBEaYSVq6b7AZhCTNVEgurM8dq4WVVMlKtDgpMmzys9nxU+7JpFFXhLH/lKmPLUOUEl2rpqWySxOeS1fO4lgC750r23D4zf5jZ0VoPni0rFp8Lq3PIEnJYHb5x/6+F6+2TAD4EYHwH2wAcdvdxLzwE4KzGtoQQC2DFwW5mbwdw0N2/N88FzGyvmR0wswNLS0vzNCGEWANa1Pg3AHiHmb0NwIkANgP4FIDTzOy47td9B4CHlzvZ3fcB2AcAu3btmi9MSQixalrWZ78GwDUAYGZ7APyVu7/PzL4M4J0ArgNwOYDrG9oqM3xYZlSEFb1gyznH86J9mW3qqvhD/swy7FgBxLgvu6uiLRpt1HwvLBw3L4k8ZpZw0Ko4Ru6reYp0zFI0ogp/znZpXHMu93eVEZfbYPMAlbwAD2GNMFdZtcZf7u+4L2fttTzf1QTVXIXRZN19GNnwn1lFW0KIdWamoBp3vwXALd32/QAuWnuRhBDrQe9Zb2M1KKtbbIniKpost8FUKhZNFoluEVaXnqmmcV9WxZi7rSookd1asQ/ytWP78T5zGxEWKRjVxegKA3i9tNgGi/xide5jf7TWU2euTvYOsIIjVeTkcp+r71nkZxWhl+Vo7e8KxcYLMRA02IUYCAurQccirljSRmvxB5a0wSLtqiWecvvs+yqRJO9jEVJxO5srbGY69iubtWfJI7HN2D85YSb2Va6nVyWxsCIXbDabPduouuf3Kr4jUUZmurBiHrMU34iwEuXVUmJs5j/TEmWqX3YhBoIGuxADQYNdiIGwsIKTzFbO7qSqsAXLbGu12ZldxNxEcTvbsnGOgdUgz26iqugmc+1l4nmtGVQsyo/1VbbTKxnZPbNow6r4Z44eY7ZsZafnc+IzyzLGSEfm0mXuQRYhWs1DZRmjXCz7rkK/7EIMBA12IQZC7zXoxqoaS7LPak7lFmH1w7Pq27p0U6ubJV4rR8Ux1ZStwFq5uVrNCYAnCkVi+8zUYJGCbDmiKoIu3zNbxZVFxlVyZKrnmU0Q9j4yd28lB3tmmUrFZyZmlnd8rOrGCyE02IUYChrsQgyE3sNlq7A+Fr5ZZSsx2z5TuUiYvcrkaC12MEtBgyojjs0dZBu4KuDB7iUXvIj74nOp7MTl5KjcXNkOje3n+4xyxftqDe/N+1it/2hvs/tkS3AzF2NrOC4rWsnWgRv3P50bKPcIIV5UaLALMRB6V+OrSJ9WVxyriVadk4ltsMw5tgRvVWMNmFbxc3QdMzWYuy0S1f3WOum5PVYAI943cxVGeY8ePTq1r8pSY2YHi66bRw0GpvsqvnssOy6bNawfq4IS+Tmz2vmVqzY/25blreV6E0JosAsxFBY2G5/VjdbkERYtxVT82AZTs1sLBLCZXVaogEUAVupzJvYBi9BjiTDMI1EloORZ8KqoSJYjJi/lNmKSCZvBjvuYh4OZXlF1Z/3L6tgxr0ZVhCKfx95NVviEeR2YSTtGv+xCDAQNdiEGgga7EAOh9+IVY1uRRTqxjKFom+QotthGzmqqXDzZXmU2UxXJl+3V1gg91j7Lfoo2cJ7DqJYSyn3KMqgq117u08qtBdSupixv7O98n1UxCDbXkamy+9gcRr6XaOsz1xsrLtHqlovysvkjVtu+onV99gcAHAHwAoDn3X23mW0F8EUA5wB4AMC73P3xlvaEEP0zixp/sbvvcvfd3eerAex39/MA7O8+CyGOUVajxl8GYE+3fS1Ga8BdxU5w94m6kdWoqCqxpAq2fFJUZbJLrVJpWR27TGutMJZMw1xvlfrPlgtiEVMsaYjV/Ktch6xGfV4aqnKVZRdRfE6sWEPczvKyd6eq08/U8WxqMJOtikRk7tf8blbPkEXMscjP8pwVjxjhAL5lZt8zs73dd2e6+yPd9qMAzmxsSwixAFp/2d/o7g+b2csA3GRmP4o73d3NbNmfxO6Pw14A2LFjx6qEFULMT9Mvu7s/3P1/EMDXMFqq+TEz2w4A3f8Hi3P3uftud9+9bdu2tZFaCDEzK/6ym9lGAC9x9yPd9lsB/B2AGwBcDuCj3f/XN7Q1sY2Y+6G1+B8rOJlt1GjztdaXz/MDVTgkk2OW+viVTcmKdLACk1GuGJYKAE8++eRkO88rVPfGQkVZLffYH5s3by5lbJ2baA0RzrBwUxbqGmmtG89se7b+HwvDZusErpXr7UwAX+uEPw7Av7j7N8zsuwC+ZGZXAPgpgHc1tCWEWBArDnZ3vx/Aq5f5fgnAm9dDKCHE2tN71luVZM/U80p9yS6MGFmWXTyVG4O5v3KBg0pVyqodc0lFGTPV8sVsmaV8n1XNuCwHc98x92NFVuOrqDC2xFOraprV202bNk22c1/FNthy3Ez9r9rI+6pCFhkWvccKq8Rn25LlllFsvBADQYNdiIGgwS7EQOjdZh/DKpswe6q1Gghb0ja6obINzdxyEeaiY25EZr/GPoi2Z5aR2WtVffVs/7Jw3yrzKl+X1YOPfcyeLbOHq3mL7Eas3F9AHXY8y9LR1XLf+XrsPlkIdfXesqW6q+KfKjgphNBgF2Io9F68YqxmsKILTMWv1KZ8HqtxzrKYWGZUJSMrIJhlbG2fuYlY1FzlypolC6uSI/dVVK1z+5Upw9yqLOuNFZyMcrBoRqbus0jBSl52LCviyd5b9pzYkuQt7lL9sgsxEDTYhRgIvarxsXjFSsdFokrIZtzZSp+RFhmWk6O1eEVUK/O1YqRZayEOpnIyM6RVNW1NCskqZrwXlsTCTC+W8FM996zCZjOkIqrBsyxDxfq7Smxi0YCtde+ZWZNhhS4mx6x4hBDiRYEGuxADQYNdiIHQu+ttbK+w6LdMFTHGigDk9qvoJlbcMlOtxZbtJWaHRns+74v3GdvINmrrml+tBTDYstJxH4s2zPZllCPOTbBsRBadFmFReOxYljHJ3r/Wmu8MVniicscyF10VIcpccPplF2IgaLALMRCOGdcbiyyLql8swpCPYwkosY2ojrJaYTSpgKjZrdGArPAEO65a0iifx1TkjRs3TraZCzCel4t5xP7OcsSluWIfZFMgtxmpot8YWcWv3KWzFE9hbrNWFZy51Kp7Y3KwfRX6ZRdiIGiwCzEQNNiFGAi9F68Y2xat63ploo3HClTMU1cbmLatmCuIFSNonTvIMlVhn6w/WJZUJGcZxjbzvnhv8V5yMUdmb8d9LEsvypGLVlZ2f2toLlC71PI8SLUcd26TPetqaXGAF4tkc0gRVkSj5Xz9sgsxEDTYhRgIvUfQVWpna/3wuI8trZRdPFWNMaYis0in1jpzbDlktrwUi9Bj+yItmVC5PaCuv5/NDNYHsV9bMxBZ7TfmmmXmW2WutEZYZvlZXbh56+NX0XXM9GSmRkXT22Bmp5nZV8zsR2Z2t5m93sy2mtlNZnZv9/+WlraEEIuhVY3/FIBvuPurMFoK6m4AVwPY7+7nAdjffRZCHKO0rOJ6KoA3AfhTAHD3ZwE8a2aXAdjTHXYtgFsAXMXacveJ+pRVOxZ1FlUupq5E9TOraXEfU5VaV2eNZLUs3gsrPMEi0qLKyRIimIrP1MBWjwEr3R2vzZ4LSzxi3omqMASTl8nBohLnNUkq8zDfC1thuJqpn6X2IJuFH9Pyy34ugF8A+Gczu83M/qlbuvlMd3+kO+ZRjFZ7FUIco7QM9uMAXAjg0+5+AYCjSCq7j/5ULZtbZ2Z7zeyAmR1YWlparbxCiDlpGewPAXjI3W/tPn8Fo8H/mJltB4Du/4PLnezu+9x9t7vv3rZt21rILISYg5b12R81swfN7JXufg9Ga7Lf1f27HMBHu/+vb2irdHW1LuHDss0Y0c3FbHZmh1a2FVvamdVkz1SuQ5YFyFxIkVY3HFDbf6zAZ+uSx7mvmC3Oli9upXLb5ufCMtaiXc4yLVuXicrvQOViZG7haj0CVryi1c/+FwA+b2YnALgfwJ9hpBV8ycyuAPBTAO9qbEsIsQCaBru73w5g9zK73rym0ggh1o3eE2EqNSN+z9Qc5k6K6m1MoshttEa/tdZ3y+6Y1hpxLMqPFdFgfRDlZ8siVSvjAu1LN7FowGq5pnzPsR9jQQ1g+j2I18rvB3NrVSo4c/Nl9yBLwqmeEytQwcwVVuufJV+Nz1MijBBCg12IoaDBLsRA6N1mH9sUzHarwlLzcbOE3FbtMxsnt18tX8xcNa02ZJafZXkx90oV2jlLG5WLitmyJ5988tS+KrOQ9Wm2+6t+ZCHIzNXJwq7jcbPYylVRz9y/8Tj27rP5Hravuu7Udco9QogXFRrsQgwEYz/7a34xs19gFIBzOoBDvV14eY4FGQDJkZEc08wqx++5+xnL7eh1sE8uanbA3ZcL0hmUDJJDcvQph9R4IQaCBrsQA2FRg33fgq4bORZkACRHRnJMs2ZyLMRmF0L0j9R4IQZCr4PdzC41s3vM7D4z660arZl91swOmtkd4bveS2Gb2dlmdrOZ3WVmd5rZlYuQxcxONLPvmNn3Ozk+0n1/rpnd2j2fL3b1C9YdM9vQ1Te8cVFymNkDZvZDM7vdzA503y3iHVm3su29DXYz2wDgHwH8EYDzAbzHzM7v6fKfA3Bp+m4RpbCfB/BBdz8fwOsAvL/rg75leQbAJe7+agC7AFxqZq8D8DEAn3D3lwN4HMAV6yzHmCsxKk8+ZlFyXOzuu4KraxHvyPqVbXf3Xv4BeD2Ab4bP1wC4psfrnwPgjvD5HgDbu+3tAO7pS5Ygw/UA3rJIWQCcDOB/ALwWo+CN45Z7Xut4/R3dC3wJgBsB2ILkeADA6em7Xp8LgFMB/C+6ubS1lqNPNf4sAA+Gzw913y2KhZbCNrNzAFwA4NZFyNKpzrdjVCj0JgA/AXDY3ccZLH09n08C+BCAcTbRtgXJ4QC+ZWbfM7O93Xd9P5d1LduuCTrwUtjrgZmdAuCrAD7g7k8uQhZ3f8Hdd2H0y3oRgFet9zUzZvZ2AAfd/Xt9X3sZ3ujuF2JkZr7fzN4Ud/b0XFZVtn0l+hzsDwM4O3ze0X23KJpKYa81ZnY8RgP98+7+r4uUBQDc/TCAmzFSl08zs3Hacx/P5w0A3mFmDwC4DiNV/lMLkAPu/nD3/0EAX8PoD2Dfz2VVZdtXos/B/l0A53UzrScAeDeAG3q8fuYGjEpgA42lsFeLjRKSPwPgbnf/+KJkMbMzzOy0bvskjOYN7sZo0L+zLznc/Rp33+Hu52D0PvyHu7+vbznMbKOZbRpvA3grgDvQ83Nx90cBPGhmr+y+GpdtXxs51nviI000vA3AjzGyD/+mx+t+AcAjAJ7D6K/nFRjZhvsB3Avg3wFs7UGON2Kkgv0AwO3dv7f1LQuAPwBwWyfHHQD+tvv+9wF8B8B9AL4M4KU9PqM9AG5chBzd9b7f/btz/G4u6B3ZBeBA92z+DcCWtZJDEXRCDARN0AkxEDTYhRgIGuxCDAQNdiEGgga7EANBg12IgaDBLsRA0GAXYiD8H/z91uQqpa1dAAAAAElFTkSuQmCC;" vertex="1" parent="1">
                    <mxGeometry x="261" y="230" width="251" height="251" as="geometry"/>
                </mxCell>
                <mxCell id="3" value="" style="shape=image;verticalLabelPosition=bottom;labelBackgroundColor=#ffffff;verticalAlign=top;aspect=fixed;imageAspect=0;image=data:image/png,iVBORw0KGgoAAAANSUhEUgAAAPsAAAD7CAYAAACscuKmAAAAOXRFWHRTb2Z0d2FyZQBNYXRwbG90bGliIHZlcnNpb24zLjMuNCwgaHR0cHM6Ly9tYXRwbG90bGliLm9yZy8QVMy6AAAACXBIWXMAAAsTAAALEwEAmpwYAAAxRUlEQVR4nO2da6xmVZnn/w+HQm4KlEBZVAFVyKUAqwCt0BpMB7x0GKfTftCYtjsTZkLCF2diZ3rS6kwy6Z7MJPqlbT9MTCqj03xwWu2LDTGd7mYYyWSMQUsFERDrQgFVUFWgheKdqlrz4bx7+9t/zlr1wjnnfQv3808qtd+z91772evyvv//ep71rCilKJFI/ObjlHkbkEgkZoMc7InESJCDPZEYCXKwJxIjQQ72RGIkyMGeSIwEyxrsEXFrRDwWEbsj4qMrZVQikVh5xCv1s0fEgqTvS3q3pP2SviHpg6WUR1bOvEQisVI4dRn33ihpdyllryRFxOclvVdSdbCvXbu2bNy4cclzEdEfHz9+fHDulFNOWfKcX8fPa9asGZw7duxYf8wvuIWFhcF1055jef4s2uFfpq335PNa71mzyW2hjaxD/3z06NHqOaJlr9tR+xHxsn/1q18tWZ5/Zr29+OKLU10n1dv91FOHXZ/vVnt/v87LnLb/tfoVj/1deM5t7Mo/cOCAjhw5MrxxguUM9g2SnsLn/ZJ+q3XDxo0bdffdd0t6qbGsgJ///OeDc2eeeWZ//LOf/aw//sUvfjG4jufWr18/OPf888/3x6z4c845Z3Adyzz33HMH5zgofvjDH1afRTt8IL3mNa/pj3/yk58MzvF5LMOvY11xsLgtfOezzz57cN0ZZ5zRHz/77LODc35tB28X1p2fqw0CPleS9u/fv2R5kvS6172uPz7ttNOWvEeSzjvvvP7YB9mPf/zj/pht+4Y3vGFwHeuY/U0a9lVvi1/+8pf9MdvsoosuGlz3wgsv9Mevfe1rB+fYhuwvfGdp+CXn9diV/773vU81rPoEXUTcERE7I2LnD37wg9V+XCKRqGA5v+wHJF2MzxsnfxuglLJD0g5Juu6660r3bcVfHWn4ber0hd+KpF/+Lc5fBi+fv5r8dnZKxW9MPlcafuuef/75/bEzDH4j+xccZUzrm5vw9+R9mzdvHpzjrzSv8/fkr9AFF1wwOPfMM88seZ3/Iv3oRz/qj/kLJw0ZzFlnnbVkeVK73WvMpEXjvS1oM8s4fPjw4DrWlbMx2tGi1q9//ev7Y2cHZD5ePm1knyOzkaSnnvo1kW5JjRqW88v+DUlXRMTmiDhN0u9LunsZ5SUSiVXEK/5lL6UcjYh/K+mfJC1I+mwp5eEVsyyRSKwolkPjVUr5B0n/sEK2JBKJVcSyBvsrQad5fKa7pjUlae3atf0xZ8Fda/Kcz1ZS11144YX9MXWQ3+f6rObioXaVhprSZ+qp4d39w3KoL/066j+fSaengfrPXWE//elP++MjR44Mzm3YsGHJMqi9paGW5RyGNJyBp70+m33ttdf2x66jn3vuuf645iHwMv26mmvP5x9Yhvc/lsn6lYaz/Xxnn8OgHd4WvK/lyeE591x0cwQtLZ/hsonESJCDPZEYCWZO4zsK40EYpOrunmEQBV0aBw8eHFxHiuVui1oQCd0l0pAGOX2mXaSEfh2f5e/Cc6TS0pAK03XldO70009XDbyWgR1OHUlVnZry3WijB/C4VCJIb/ksp8+7du3qj102XXLJJUvaSLkmDWm2yxq2L+1wOUGJ4nKC7+n9itKLfacVgOR9gm3Dd/FoPb6LS69OLiaNTyQSOdgTibEgB3siMRKcNK43as1WKC3dZn5dK0yVmo+ayfUq4SGmNR3q7h7e59qwZq+Dms/t4ByB60vOfTB01ENMWT8+b0Hdy1Bdn5tg3bFupKG2pRZ33c86cNcebWQf8DkL1pWXz37F8tx1xftYh9Lw3TyE2hfULHWPNKxHD6VlmXwXdy2z7/tioG4s+PwOkb/sicRIkIM9kRgJZk7jO7jbiZTTaavTqg5Oh0gJnXJyJRfpotM+L5Oo3eeuIFIpX5XG93b6TApHiuxSgBTUqR5dL3xnurGkIf1vlU+0osK8zVgm3W1+Hd/Ty6dMoyvSy2Cb+QpBSghKR5dvvK4VOekSglF+bHeXqXTR8V2kYb9ln3CJxjHi/bbrm247kb/sicRIkIM9kRgJ5kbjnWaTKjm95WwlZ75bSQYcjE5r5QNj+a3ot9aiClJJt4lU3SUDI6lIg52aEi0ZQsrpUmPLli39sXsuWK+cVffoLMqErVu3Ds49/fTT/THf2Wfca9Fj0rAOaCNnpR2+8IieBdrfigZ0WcP6d68GZ+Npo8sERsO5TOJ9tNf7ZqsfdHXcSiCbv+yJxEiQgz2RGAlysCcSI8FMNfvx48d715MnBiRcA9NVQa3v0Uy8zqPTaquBXEMSrpno1mB5vvqLms9dMNRrPudQS77RSjnt2pDuK+pE16h0BXldsfzHH398Sdul4ao61/18HucRvB04J3Do0KFqGa3U17TL+xXnAVier17jvIK3J+vU55P43qzHVp22UEsnLg3nC2rJPNL1lkgkcrAnEmPBTGn80aNHe6rqkV+k7h45RBrL/GhOK0lpnSKTSjKKzWkfkwK4i4fl05XnFLaVL41U3Sm4R1bVymvlMaf0aCXRaEW/cZEF3Xc1+6SXUnDWHevb34V10HJrsT1bi1iefPLJwTnSbr4L3YaStG7duiXt9fIPHBhujUA5QHnhUqC1K05t2yh3o/FdXJZNs2dj/rInEiNBDvZEYiTIwZ5IjAQz1exr1qx5SThjB7rRWvt1UdN4ggDu5um6i1qZ+sZ1KLWbu0/o9qM7xnUoz7mWdbdiDdSofk8t8aVU1/OeZIFleHJEL7ODtwvrzlfV0X62i7sR6YrzcFBeyzZzvUp3lbvG2GYM4XVXWGsLa9adzyexDtgPvF9xnsH3GWB9c87B3YOc3/D5nq6vLsv1FhGfjYjDEfFd/G1tRNwTEbsm/5/XKiORSMwf09D4v5R0q/3to5LuLaVcIeneyedEInES44Q0vpTyfyNik/35vZJunhzfKek+SR+Z5oEdHXMqVqND0tBlQure2obYc26TtlEyuB2kkk5vWQbdRC33F7doltrbRZP+85zTStaV0zm6dVgHTh1bUXh8Ns95rnImFfHIONYJoxRbOe9bOfnYLi4n6Fb1Oq3l2vPoS9pFKefP8/5SSzLSyrXnbjK2LyWDr5jkZ18x2T1vNVa9rSuldI7Kg5LWtS5OJBLzx7Jn48viV0n16yQi7oiInRGx09dUJxKJ2eGVzsYfioj1pZRnImK9pMO1C0spOyTtkKRt27aVjlp6FBGpks8ck46S8ngUFGetnVaSApHC+bM4i++UiDa2dv3kZ48KI71zGznTS1rJ2WxpSFW9DFJ8HrusoeTx2X7KCdaxzw7zOqetnH12rwlRix6T6rvatrwHrS27WlFsrCunz60003z2pk2b+mOXPPv27euPL7300sG5Wqptb5daTj7p13JiNWj83ZJumxzfJumuV1hOIpGYEaZxvf2VpK9Juioi9kfE7ZI+LundEbFL0rsmnxOJxEmMaWbjP1g59c4VtiWRSKwi5pZwsuXy8uQEdDO0kl7UXFf+mZray6ObyDUk9d/FF1/cH/uqt1YSDc4XuDuMK+lq9krtbXmpFTm/4Zq9FUVIMEGFtxnhZdSu9XZhW/tKSNrMORLX5XyW1+m0UY+8z9u9tb11bV7B65tt6xPV7N9sM5/v4TyIz1t09Z9bNicSiRzsicRYMFMaf+zYsZ6OOR0ifXYKRPpF+uKuCX52dw/pHMtwVwWvc3pOd1irDNLKgwcPqgZPwkAKRjec0zkm8PC64mdSZr+OcCnDz3RFtpJ5tOQQ68oXqtCd5/XI92bbusu1tpOql1Gj9NKwrlwKtBJb1O5zKUA7XJaxv7QWQLFOvb5X0/WWSCReZcjBnkiMBDnYE4mRYKaa/dRTT+3DDd11QHhiAeYup8vLVy5RQ3r51NvUPr56iKGLrn+oz+jiclcQ9Rr1tTR037l7ijq95QKkNnQtTg08rauMoZySdOWVV/bHDA/1+m5p4Nr+bp6wkfrVV8TRfs7BeK5/19gE26yV3IR1TDeZVA9jlob16HVQK9+1OMvns73/sc+57u/6VWr2RCKRgz2RGAvm5npzOsTP7lYgrWT0kVNYUjaP1KL75KmnnuqPnVJRCrSiwkj/PSc784i5HXQ9eT42RqvVtnGShhTU7fcyOzjtY/lOW/fu3dsfk8Z7kg7WgbvlWD5pqkfJkXZ6u9M1Scng9UG3lrcZr6W08NVrLlGIVlINusoYQeftTvni5dEWuns9yo9lep/r2iIj6BKJRA72RGIsmNtCGKfxzz33XH/siQVIv3jsyRS4qMKjqkiBSI9aM/qeNMKpUwenjny2zxRzVtY9AaS7POezvK3FQJy1Zv34e7Z2r6XUYF15LrxWSmu+NyWUtxk9LT6TTEpK+91bQ7u8rmgHpYBHWFJeOBXmZ6fgtaQX3ifolWm1H+UQt+GShu95xRVXDM5113pkKpG/7InESJCDPZEYCXKwJxIjwcwj6Dq9RY0uDfWxrzarwfUwt5ZyjUq3Gd0xrp+oVz3xIPVQK/KrtXU03URuI91otMvtoIvOz1H3sn58foDuO9+Sq5Yg0nV5axtlzrvwPd2dxG2jfIUg26mVcJJ14KvqaolEvO7Z57zN2Dfdxcg5B85H1FygS6E2X+V1yvf2SMTuvnS9JRKJHOyJxFgwUxp/9OjRPpjf6VYrP1gtR5pHUtWoun8m1WltwdTaFqlF+5g/3OlzbYdUaUjdeezv7y4ZgpSQ7hlfFEOK71KGsoS00iki380lFW2mtPBdUFm+1yOf13JX0RXn9Us3KOvAXWikyK0dXl3i8HlMquELoNhfWjn2aYe7oHlfbYfXZe3imkgkfjOQgz2RGAlysCcSI8FMNfvCwkKvx12fUZO18nZTU7t7gzrJNRn1N101vmqMushdarXtf13bc2Vea4vfVr72Xbt29cd0tUlDDexuStpFt5DXN3Wpu3ioxemi8pViLfcS666VEIR2ud5mn+B1TGDiNvocCV1UraSmtNdDbtlH3NXJa9lOnhyD81Ct+QLa8fTTTw+uY//2JKRdXbUSi06z/dPFEfGViHgkIh6OiA9P/r42Iu6JiF2T/887UVmJRGJ+mIbGH5X0x6WUayS9VdKHIuIaSR+VdG8p5QpJ904+JxKJkxTT7PX2jKRnJscvRMSjkjZIeq+kmyeX3SnpPkkfaZVF15tvW0v3BpNLSENKRMrpK7dIYTxCatoc6qRlrXxjpLB+HV0mTuO58sq39SVIx321HWmfnyP1ZeSXu80oJzyHHnPSbdy4sT9mUg5p+G6+ypDvRgrr1N/dSwTrtZXPn/Xh5TNCj3A63kpQwbpyyUb7W3XaWiFYSyTidUOb3fXWtcWK5aCLiE2SbpB0v6R1ky8CSTooaV3tvkQiMX9MPdgj4mxJfyvpj0opg8iCsvh1suRXSkTcERE7I2Jn65cskUisLqYa7BGxRosD/XOllL+b/PlQRKyfnF8v6fBS95ZSdpRStpdStnsyiEQiMTucULPHot/kM5IeLaX8OU7dLek2SR+f/H/Xicqi642uJWmYzcRXYREMy3QdSubgLhi6T6jZW5k9XFtxvoBhk14GNaR/wXFll4deUqPxPb0+GHLq4ZF8t9Z+cZwz8TkS2sHy3EXHOvV5C7YFNam7VVuuSOpP3uf1zWe7lqXrjW3hmprzQi1N7Ta2EoPW0FoJyXkouk4dbkc3rlrh2NP42W+S9K8kPRQRD0z+9h+1OMi/GBG3S3pC0gemKCuRSMwJ08zG/z9Jtej6d66sOYlEYrUw84STHfX2aCzS0dZqM55zSkj67GWQEpJG+QoyRil5GXSL1LYTll4a+UTwWncPkj63IgVJF/0cy+SzPF8768BdWZQNlAItOeE0nhKL9dhytTkFZfl8Fy+Dn12ukNa3tpDiZ5dGlFT+bEobPtv7Dq/zJB1sG66c8/qge9DbvbYVOpGx8YnESJCDPZEYCWZO4zuK1JqVdVpMmslILafBNUolDWcvuVDlTW960+A6UkdfzEAwmsmjr7jIxOkW6eJb3vKWwbnHHnusP+a7uB2kyF6PpOet5A8tuseZdM7ak2JKQ/rpdUCpUcu3Lw2ll3tQLrvssv6Y0XtPPPHE4Lpt27b1x76IhfXfSrbBPuc57jiL7xSf9drK/8Y9DdyrwbZg//C4FJZf61eZgy6RSORgTyTGghzsicRIMFPNHhG9pmhFG3kySiZRpP5zXU7d5S416iQeewJEumrcRkZdsQx3XbX2R6NW9PtqiRM92pDzD6496R5kHVD/SkNt524zXksb3e3E+vBVZLSD8wqueemC9RWCNdeez7PwPp/foE7nda2trj3qkdrZV/dx/odt7RF6tN/3TGD0KJ/lZbBv+hxJZ/+KrXpLJBKvXuRgTyRGgrnljffc8IQvACAVI31xKkO3i5+j24jU0V0VpHCt6DS6S5yatlw1rUQIhw4dWvIcKbE0dEM5taaLh1LAE08wqYPbwYUxtN8XX5COOgXnfaSw7l5rLRpifbMtWrnq3K3Fa2mjuyxpo8tDlunuXtJu5sZz9x3rjrRdGkqBmhtOGvZhb/eO4rcWwuQveyIxEuRgTyRGghzsicRIMPMtmzu97CGU1CAeJkitRb3dCkV1zU49uHv37v7YV3JRr7q+5JxAa2tn2u86l64sd61Q87EM15DMT069Jw3rgPXmGo8a3hM+1JJitvKp+xwMr+WzXVPSRg/HZZuxfHevtbZiZh+hvf6srVu39sdMuCkN5x98ToDzKbVQZWk4H8O9AKXhe7J+vH/zOp8j6VZael8h8pc9kRgJcrAnEiPBzFe9dRE+HsHESDBPbEF61NoyidTJo/BqiRDcDlJCp4u1XO5O9xkJ59SXdLRF8UmfX46LkS4fRgB6tJ7TQILvSZlw4YUXDq5jtJa79hhpRmrp9lIyeH3Ukpa4ZKAd7vJiXyIdd5pN6u6yhvXo9cZn8zqXK60tpGr03Mtg+V6PnbxI11sikcjBnkiMBTOl8cePH+9pli8yIf3ymWNSoNbOoa30zqR+jJ5y2kca5edInUjV3bPA2X7fcdTLrNnIMlsLInxWmde2FhuRfj766KODc/RIMCffww8/PLiOVJ3bREnDduI5TzzBRTcueRjV1qKwrQUovLa2JZU/u5Ub0Cn4tH2ztf0Yn03Z5DP/hD+rkyi5ECaRSORgTyTGghzsicRIMFPNXkqp6khqGncTUb/WVlNJw2g411a8j+W1Ei+6DqWW86QRBHWjl083nZ+jDqPW9Pek/T6/QbcZ69G1MuvbtTKj8B555JH+2Fffce6D2yxJ0tVXX90fUyu764rt5C5Mrmbju3jUI+vRXWp8Hu33BJxsM68PzgW5+5HvXZvTkeouOrefbe11xfr2uursarqmq2cmiIjTI+LrEfFgRDwcEX82+fvmiLg/InZHxBcior7BdSKRmDumofG/lPSOUsp1kq6XdGtEvFXSJyR9spRyuaQjkm5fNSsTicSyMc1eb0VSxy/XTP4VSe+Q9AeTv98p6U8lfbpV1vHjx3tK5NS0lmRAGrqamDDBExCQZrtrhS4vnnMXBikVFy/4faRlnqCiVT6lwfe///3BOUZSkbY6rSTcTcR6JEWmC02Sdu7cWS1/7969/TEpfetd3B3GuqPUcBrc2lGXLrWWq5P1765NvjfdWt7/2Je8Pug+9TqgXawD739MKuLusRrF9zL42beQ6t671Vem3Z99YbKD62FJ90jaI+n5UkrXGvslbajcnkgkTgJMNdhLKcdKKddL2ijpRklbpn1ARNwRETsjYqcvXU0kErPDy3K9lVKel/QVSW+TdG5EdDJgo6QDlXt2lFK2l1K2e46xRCIxO5xQs0fEBZJeLKU8HxFnSHq3FifnviLp/ZI+L+k2SXedqKyFhYVel/rqHLqyXP/R9UGN5DnZeZ/rOq5ga4U18gvJdR2ZCe13dwd1o4c8cvWdz02wDqiV/V3oenKNumfPnv6YSRJ8/oEuuvvuu29wju/dymP+1a9+tT++7rrrBuf4bldeeWV/7Lq8tc0225f17XM1rCvXw2xrv49gH/OVkD4vQrA/tuYfmODTE0zQDch6c/cuz7me765thctO42dfL+nOiFjQIhP4YinlyxHxiKTPR8R/lfRtSZ+ZoqxEIjEnTDMb/x1JNyzx971a1O+JROJVgJlv/9RRbboipCEt8S2ZakkjWu4Njywj1WtFGZE6ORVjGXRrOS0jlXIaz4grd0OR0lJ2ON0nzXQbKWVaSRf4nps3bx6co0uQZXzve98bXPeud72rP/aVczfddFN/zO2rrr322sF1pMEe/Uba7QlNCEaTecKRWk43lySsR5dGnr+d4PNYV24v+whXFUrDra9phyfRILyuujHi7zW4p3omkUj8RiEHeyIxEsw8eUU3s+kz7oRHAZHOkeZwBlVqp5Jm5B3pkW/FQwrulMhn/zu4Z4HX+YwqbXT6T2pGeuveA9JMlySUBqTuHnHVmsGuJffw+uY2XU51Kam4AMXr9IEHHuiPb7yxPgXEOvX6YB14NCPtYJ9oJYbw+mjtElvrx962LYpfS6rhC4+YqMTbvZWopEP+sicSI0EO9kRiJMjBnkiMBDNPXtFpmVoEkPTSnO/UedRrrruo1zw5AfUP9bAnbKT+dj3mCTE6eKQdy29pZddknKtgfbQ0tT+bcxqsK3fVMArPXZ3U/dTl7grqthyShsknJemhhx7qj7m10te+9rXBdVu2/HqZhdcv67GV5ILnvK74LmxPn3+hq9b7H+vRXbpsC0bauWan7neXK/U3V+Z55CTtd/eg27UU8pc9kRgJcrAnEiPBTGn8Kaec0lNBp9mkiE6j6D4hdXd3A6mML16oLRBwNx+po9/jCyQ6uCuI9jq9Jb1zV1ZtWyrfqZVwVxOpH9/F7eB1Hl3HXWJJHf09KQ28vpmDjja624nP9jx2tJGSp7VNlIMSsNaPpCEtZsSfJF1++eX98be+9a3BOfbVVh472uzu2FZUaM1Gf+fuXOaNTyQSOdgTibEgB3siMRLM3PXWaXV3HdCF4a4g6jVqPNeJrcX91I089nBZltnKY16zXRpqZddnrS2b3dXSweuD+ttdLvxMve3zDW9+85v7Y+aG92sffPDBJcuThhretTjnU6hrvQzOR9xww3AldS0Pu8/pMDmna3G2J1eX+TwI54y8b3JuxXPWM9lJKzEJNbbr7ZpLcP/+/YPr+G61raNTsycSiRzsicRYMFMaL/3aXeN0q7WlLSOkeOwUlu4Ouo+kIRXjs5yas8wabfdzTmFJb11O0A6/j8+mG4r00+13es46oAvJqS/PeWQcXWpMbOEJR6666qr+2Okj89/xnd0lxdzzTz755OAc6S2ll7sAKbecgte2ufKIQpbpiVG5YtJX7TERBZ/l/Zv3efQeox75zi7z2IbupuyudVcskb/sicRIkIM9kRgJZkrjX3zxxX5hCKOSunMdnBLWqI3TfdI5z/NFusuZTJ8B5+y80y1SJFIq9wqQIjqtIkX0WVkuymlFA3IhhSdT4MIYLjLxmV1KCLfjO9/5Tn/MunLZwW2RfJdYvjftdRrP93S5Qkpe2+FWGs7Ue3206pvgLLu/C/uE902+D/tfaxsmX7xEmUPJ4PXNfuAypPVu/T0nvCKRSPxGIAd7IjES5GBPJEaCmWr2M888s98miNpEGuou1x/UP3RpuJuFkWWuaaghqX1cU/PZnpOdcwSt7Yh4ndvR2u6otqWUz03wOnc/cp6B8yCsX7fDEy3QTXTLLbf0x0xk4c9yFyO1M3Wz28F38y2suXKOdeX1xgg61/N8T86zeFIRurL8XWpbKkvDOQ0et6Ij3V1amydy9xrnFdwt3PXjVuLJqX/ZJ9s2fzsivjz5vDki7o+I3RHxhYiop4tNJBJzx8uh8R+WxG0/PiHpk6WUyyUdkXT7ShqWSCRWFlPR+IjYKOlfSvpvkv59LHKGd0j6g8kld0r6U0mfbpVz9OjRnnJ5JBLptJ8jdSc9dDpH2uNuM9JH0jRfULBv377+2Bc9MIKM7hOnTi3a1wJpZms7IrpqWhKC9NypKd1me/fuHZzjta38a6SSLM+fzUUnHsnHdvH65nvz2W4HXXu1xUTS0P3ocoL3ufuOfcQXR7Hf0i7vV6xT75vuFu3gcpYLbbw9u8jSlaDxfyHpTyR1Jb1e0vOllM7q/ZI2TFlWIpGYA0442CPidyUdLqV885U8ICLuiIidEbGzlV4pkUisLqah8TdJ+r2IeI+k0yW9TtKnJJ0bEadOft03Sjqw1M2llB2SdkjS1q1b64ttE4nEqmKa/dk/JuljkhQRN0v6D6WUP4yIv5b0fkmfl3SbpLtOVNbCwkKvlVyPUDO5RqXGoZZ1vUo95Suj6O6gK8/tYMgmXTr+vNpKJWmYT933QOMKM3fLUefynT2/PPcG8/kNzhdQH3v4MDWl23HJJZf0x6085ny2r/Kq5dj3Mli+6+haopJW//D6ruVr9zajXR4SSx3sepvX1o6lYX9xtxzDYvmefh0TodTyxntbEssJqvmIFifrdmtRw39mGWUlEolVxssKqiml3CfpvsnxXkn1bTcTicRJhZlG0B09elSHDh2S9FKKQgrubgt+JtVrrUrzFUPdc6Whi8TpEKmSu3haOd8J0n2XCS4vCNJFvmdrGyBfXcUySK3dVeNRcwTL5LOYaEIa1oGv5KIcYtv6u5Ba+wQu6//SSy9dsjxpKFFaK+LYtt7HGMXmbcRrvd5Iz9nW7r4jvfZkIbSf48Jdy2xDr8eurjJ5RSKRyMGeSIwFM6XxCwsLPbX0FMuEzyiSmnIBjVNTzmQ6zSZ14rOdZnPRhs/G81rSVp9FZi41fxeW74uBWGYr9TApnFNazgJzRtzzqlHWOF0kKJX8PQn3CrBMUl9fBELa7dKLZZLiO1WlXU6RSYtZns+Wsz4oGaRhfbeSb1A2uY2UBh6xyDpmeT5GKA/dQ9PKl9ghf9kTiZEgB3siMRLkYE8kRoK55Y33FU7UucxHLg0TAFKruPuBLhJfXUWtSC3kbhbqSy+DkWvUmu6OqSW5kIaar5VQgpq3taWPg2W0thBmfbju5+oqrmZz1xiThnK1oDSsE0a1+TwL7fX64BwMXXReH3QJeuQeNTzr1OcOuPKs5R70ZJSsY9ZbK5+/u3Q5V9NyZ9ZWf0qZNz6RSAA52BOJkWDmEXSdu4nUSBrSeuZPl4bRTaR2rfxrvoifFIvP8gUcTFDh1JfUnW6zyy67bHAd3T0eqUUq6TZSNnAxjdNs0t3Wdke0w6lpy91GWszorm3btg2uYzt5XZE+k3Z7ffBdPKqSEos541r57nxxFG3kO/uCGb6z1w0pPqWcNKxv9g/P9d+KjKPbjNTd64o2u6TyulsK+cueSIwEOdgTiZEgB3siMRLMVLOvWbPmJS63DtRkrqeot1u5ylvb+lJD8pzrImp4d/HwMxM8eNgr3TH+vnQNeUgvdS/1vOtQ6m+3n9qt5oaT2oktavu0+SpD1pWHmLIMujp9/qGVSIR6niGmrHtp2D+4d4A0fO+Wu5HweZxWohK2BevUQ63ZTj7Pwj7C+QfX4ZwH8NDiTve33LT5y55IjAQ52BOJkWCmNL6U0lMidwWRuvsKHp6ja8LdIIyuc1dQbfsglwKkR7t37x6cI1UlrfQVZXQJkmJKw8gyp5ykiKRjXh/87Ku8SP9bkWV0SXnUFRNPUPK4S5T16HYw0ox2uLuU1NSlF6n21q1b+2OPWCQNbiV8IJV2uku673ncKSe8fEqDPXv29Mee6IPv5tuV043GPtByI/pqyk5urVYOukQi8SpCDvZEYiSYKY0/duxYP0vpEXSkOT4rS+rEWU6nOaTMpKLSSyOaOvhsNhfk+EKE2tZQviiBaO0S6xSfFK5F1WlXayEPr/OZXc4cT7vTrNcHabbX75YtW/pj1rG/M2m2z4KT3tbSeEtDieIz9bXtsLwM2tg65wtc6KFgn/M+zLpilKY0rDtKBvfW8LNHbXb9YEV2cU0kEq9u5GBPJEaCHOyJxEgwt4STu3btGpyjq6KVSJK61vUTda6vCqKrhfd5VBj1q7t4askDXLPTpeZunNaWSdR11M2uy+m+8gQbdDm2tlZqrdDiPAPtcBcj4XMfrG/qV4+0Yz+gzpeG7802a23/5HXF96QW94hC3tfKDV+b+5GG7+nJImur4/xzK6LwyiuvrNrR1U/L9Tbt/uz7JL0g6Ziko6WU7RGxVtIXJG2StE/SB0opR2plJBKJ+eLl0PhbSinXl1K2Tz5/VNK9pZQrJN07+ZxIJE5SLIfGv1fSzZPjO7W4B9xHWjccP368p9pOwemSaeUnr223Iw1psJ8jzWwlQiBFdmpKt0YrVxhdK04XGaHnbhLex+u8fH52ucJoQz7bIxb5bHftMTKRUsMlD+11VyrpJOvK6efmzZur5TP/HamuU/VWBF1tMZBHFLLPeZvxWm8Lvhvr3mk8+7v3uVo+Q+8fra3DOhtbSUmm/WUvkv45Ir4ZEXdM/raulNLF7x2UtG7pWxOJxMmAaX/Z315KORARF0q6JyK+x5OllBIRS66tm3w53CFJF1100bKMTSQSrxxT/bKXUg5M/j8s6Uta3Kr5UESsl6TJ/4cr9+4opWwvpWz3NbiJRGJ2OOEve0ScJemUUsoLk+PfkfRfJN0t6TZJH5/8f9c0D+y0nIeztnKtU29S7/gqLOq/lguGuty1LDVZK7EhtWwroYGv8qLGbq28qoWKSkNd53VFrcjr3G02rauJ9rumps71ZA21eRevD9aj63nWI3Wz/2jQVdhqz9p8hjScf/B34ZyA1/eGDRv649a8E9/by2d9s528f/i7Ed19/l7ENDR+naQvTSr0VEn/q5TyjxHxDUlfjIjbJT0h6QNTlJVIJOaEEw72UspeSdct8fcfSHrnahiVSCRWHjOPoOtcEE6zSVU9p1st57ZHC5HWOzWl64OuJY9AI1101wcj40gd3d1BKuUUv2aTNKRtdBl5GXzv1oo1UkmvD0oUX11FNxqpqcsJ/0ywHvmeLXv9HMunvS2Z54k+SOP5Xr5tMp/lkXws3/st3bO1yENpWAfeniyDbeHXcRw4xe/uWwnXWyKReJUjB3siMRLkYE8kRoKZavbjx4/3msfdCHRN+GowurwY6uqahhrbz9XyzXtiytY+atR51O/uZqEbx9+T1x46dGhwjkFH1IauZWmz637qOrrhWllmHMzI464ygtrZM8RwXoQ61MNqW9lj2O58lutm6le6wrx8zul4/2A9tvat8zZjHdMl6OV7clSC78Z35h6Hbr/vrdDaqrlD/rInEiNBDvZEYiSYKY0nnB626BypGamM07k3vvGN/bFHKXGLI0ZEOUXmfU6Ra1tXeQJBunHc5UWK6NFOpHoevUcw0swTSdLlRcrskoTv6a4s3kf671SRdrS2jibldDcf5ZVH6PF5lDgeacc6dTu4lwAllSe+pPurtSWYSzbWN91+TrPZ3/1cbZWhr8xjv3IZ1iUB8Tok8pc9kRgJcrAnEiPBzLd/6mZOnd4yks3pCykX6ZBTWFJ8n9EnHW0llyBVd3pOG2mTJ3+gXU63WKbbSOr++OOPL2m7wyktF1Kwjt0rQLuc+tF+lu91xRlnt5HPo1Ry+UYp5u3JWXbKMKfqfBenyLVdUTdt2jS4jmW6hKL0cNlHqcH68NyDLNNzFpKec0bfE5Ow//m5LrdfK2Izf9kTiZEgB3siMRLkYE8kRoKZa/bOreFalu4T15d0u1DvuIuutQca3Wh8tidCoNullYOb7inXze7KIqjvfeUS3WF0N7byxrt+Zd3RDncZMdrQy6ALiTb6CkHe5ysVOR9RyyEvDdvF3WFXX311f0zN7nawfHebEYy+9Oi0ViIOamqfV2Ad0A4vv7XVeG0fOJ874FyWt1nXV3Ovt0QikYM9kRgLZp68oqMmTrda7hlS95qrQxouSnAKVItuchcg3UvuaqILhja624nywt+Tn33bXdJYusNcrvCzU3zKC1J6j347cOBAf+y0uLZQyJ9FO7y+2Ra1railYT261PBFJ0vdI0lPPPFEf9zaUovt6TSY9eOuSEoPT9hR22rc3Wss3/sVZQPbr5Uoo5YwpbUgJn/ZE4mRIAd7IjES5GBPJEaCmWr2Y8eO9VrG9TbDVB966KHBOWoh6mMPq2WoqIewUtdRN7rebmkeuomopzwhQy3ZojTUZ+7i4bNrmlca6mjPB08XWMsNxdVgrv9YV9SorqlbGphaubUKkPq4tRVzK4kG7fI91vhuPG7tJ+j1Tf3t9tMuut5aLjBvF25XTrTCpFvzODXkL3siMRLkYE8kRoKZ0viI6Cm5UyXS4m4FTwdGqJEqtVxv7uKha4+0m5RVGtJbp1G0g3TOo8daK8pI75xy0n1Fd5jnRGtFEZKecmWUR6618tjVknv4KkC+p8ummr1Ox0lpXZLw2WwLj7BkGe56q72n1z2f5XVaS1oiDfsB7fD3pLTzc6xXSh6vD7anu0s7SbjsvPERcW5E/E1EfC8iHo2It0XE2oi4JyJ2Tf4/78QlJRKJeWFaGv8pSf9YStmixa2gHpX0UUn3llKukHTv5HMikThJMc0urudI+m1J/1qSSim/kvSriHivpJsnl90p6T5JH2mVVUrpaYbPvJIC+QKRGlXytMGkZj7jSXpLGujJDkijWtsbMfrN6S3L9wU/LNOpL+/zWV+C1JSLRaThDD/LbyVd8EgtSg9SSZ/B9jYkWCe00ZM6UF54fjp+5gIUlyT87JF8fG9SaS+D8sqpMO/z/sLyW5GCtN8XwtBmSo1WAgw/1/XHVp+d5pd9s6RnJf3PiPh2RPyPydbN60opXWqYg1rc7TWRSJykmGawnyrpzZI+XUq5QdJPZZS9LP4UlyXuVUTcERE7I2JnK1F+IpFYXUwz2PdL2l9KuX/y+W+0OPgPRcR6SZr8f3ipm0spO0op20sp2312MZFIzA7T7M9+MCKeioirSimPaXFP9kcm/26T9PHJ/3edqCyuenO9R73jeps6hBrJdS3dLu5aYbQX5wR8BRK1lrvUmOiCyS1dl7fcH9RuvjKKSTroEnR9Se28Z8+ewTley3fziC5e1yq/Ff1GV2QrwQbr0ZOFeBQkcfnll/fHTz/9dH/sbUYbve7Zl1i/Hr1Iu1xvE+4GpQuMq/TcNca64tZh0nAssN+2kqdccMEFg89d2/h8FzGtn/3fSfpcRJwmaa+kf6NFVvDFiLhd0hOSPjBlWYlEYg6YarCXUh6QtH2JU+9cUWsSicSqYeY56GoU16OiiBYdJWqJBKQhZaZkcApOuuWRU6RYdE+13B1OF2m/29ht4SMN3WaeI5x2eX3SflJJp3dMlOE7sBKUKy6v+C7uRqQdtL8lJ9xtRvpPWeBygmW6LKglpfD6YN9xqcFz3hZ8HvuSX0dK7out2B/Z171/8DqXE925TF6RSCRysCcSY0EO9kRiJJjbqjfXI9RTvpqN11Kj+uohajwP7WT51J4e/shzPo9Q2w7Xr2PIo+cZ5/M8zJbvwzpwVw3nDny+oOZ+9PpmXvPW1sC8z/U27XINSddQyw7qXM4PSPXkFd5mte2hpaG+px3eLq0knoS3BduJ8xT+ni0t3poTINgunpe+e3bmjU8kEjnYE4mxIFoRNyv+sIhntRiAc76k505w+WrjZLBBSjscaccQL9eOS0spFyx1YqaDvX9oxM5SylJBOqOyIe1IO2ZpR9L4RGIkyMGeSIwE8xrsO+b0XOJksEFKOxxpxxArZsdcNHsikZg9ksYnEiPBTAd7RNwaEY9FxO6ImFk22oj4bEQcjojv4m8zT4UdERdHxFci4pGIeDgiPjwPWyLi9Ij4ekQ8OLHjzyZ/3xwR90/a5wuT/AWrjohYmOQ3/PK87IiIfRHxUEQ8EBE7J3+bRx9ZtbTtMxvsEbEg6b9L+heSrpH0wYi4ZkaP/0tJt9rf5pEK+6ikPy6lXCPprZI+NKmDWdvyS0nvKKVcJ+l6SbdGxFslfULSJ0spl0s6Iun2Vbajw4e1mJ68w7zsuKWUcj1cXfPoI6uXtr2UMpN/kt4m6Z/w+WOSPjbD52+S9F18fkzS+snxekmPzcoW2HCXpHfP0xZJZ0r6lqTf0mLwxqlLtdcqPn/jpAO/Q9KXJcWc7Ngn6Xz720zbRdI5kh7XZC5tpe2YJY3fIOkpfN4/+du8MNdU2BGxSdINku6fhy0T6vyAFhOF3iNpj6TnSynd6pNZtc9fSPoTSd0KjtfPyY4i6Z8j4psRccfkb7Nul1VN254TdGqnwl4NRMTZkv5W0h+VUgY7I8zKllLKsVLK9Vr8Zb1R0pbVfqYjIn5X0uFSyjdn/ewl8PZSypu1KDM/FBG/zZMzapdlpW0/EWY52A9IuhifN07+Ni9MlQp7pRERa7Q40D9XSvm7edoiSaWU5yV9RYt0+dyI6NZizqJ9bpL0exGxT9LntUjlPzUHO1RKOTD5/7CkL2nxC3DW7bKstO0nwiwH+zckXTGZaT1N0u9LunuGz3fcrcUU2NKUqbCXi1hMEPYZSY+WUv58XrZExAURce7k+Awtzhs8qsVB//5Z2VFK+VgpZWMpZZMW+8P/KaX84aztiIizIuK13bGk35H0Xc24XUopByU9FRFXTf7UpW1fGTtWe+LDJhreI+n7WtSH/2mGz/0rSc9IelGL3563a1Eb3itpl6T/LWntDOx4uxYp2HckPTD5955Z2yJpm6RvT+z4rqT/PPn7ZZK+Lmm3pL+W9JoZttHNkr48Dzsmz3tw8u/hrm/OqY9cL2nnpG3+XtJ5K2VHRtAlEiNBTtAlEiNBDvZEYiTIwZ5IjAQ52BOJkSAHeyIxEuRgTyRGghzsicRIkIM9kRgJ/j8usDR7NNohiAAAAABJRU5ErkJggg==;" vertex="1" parent="1">
                    <mxGeometry x="10" y="230" width="251" height="251" as="geometry"/>
                </mxCell>
                <mxCell id="4" value="" style="shape=image;verticalLabelPosition=bottom;labelBackgroundColor=#ffffff;verticalAlign=top;aspect=fixed;imageAspect=0;image=data:image/png,iVBORw0KGgoAAAANSUhEUgAAAPsAAAD7CAYAAACscuKmAAAAOXRFWHRTb2Z0d2FyZQBNYXRwbG90bGliIHZlcnNpb24zLjMuNCwgaHR0cHM6Ly9tYXRwbG90bGliLm9yZy8QVMy6AAAACXBIWXMAAAsTAAALEwEAmpwYAAAjnElEQVR4nO2da8xlZXXH/4sBBgTlNtNxwuiAETXEVNSJ9zSItaGXlC/GqE1DG5L5YhubthFok6Zt2kS/aP3QmEyqlQ+2aC8WQkyVTiFNk4qOFSsXEaQQmTDOTMMI3rg+/XD2eV1n5V3/d+39nnefgf3/JZM55+y9n7323ud5z1rPullrDUKIFz6nrFoAIcQ4aLILMRE02YWYCJrsQkwETXYhJoImuxATYVOT3cyuNLP7zOwBM7tuWUIJIZaPDfWzm9k2AN8B8G4AjwD4GoD3t9buWZ54Qohlceomjn0TgAdaaw8CgJndCOAqAOlk37FjR9u7dy+6/Re2+T86cVu2Xx+yMU/WoCIvbx8Zs+PYPY0s454MlX+Z592Kc1e/m1v9Hc7GePjhh3H8+PF1T76ZyX4hgO+5948AeDM7YO/evfjKV74CANi2bdvCtueee27tdbxR/v3TTz+99vqUU05J94vEfec8++yzTOQUfy4vOztXhD30U0/92aPx1xzPze6VH5/JFOWI15Odix3j5ff3ON5v/z2o/gBU7xsAPPPMMxuOt9E2f22nn356um3oZK9ep3+G8X7P37/tbW9Lz7vlC3Rmtt/MDpnZoePHj2/16YQQCZv5ZT8M4GXu/Z7uswVaawcAHACAffv2tflf8viXqfpL6X8J4l8+Nkb2axB/8ZiGkY1x2mmnpWNkv5IbyeJ/AYeqhNVzx/38PfYy+V/JKBe7j574y8ueWTZe1Aqj5pON749jGl0fLahqHrH76GWJ36Xs3PE+VjTUzfyyfw3AJWZ2sZmdDuB9AG7exHhCiC1k8C97a+0ZM/sdAF8CsA3Ap1trdy9NMiHEUtmMGo/W2hcBfHFJsgghtpBNTfatgq2oeqLt5m2auC2zgaur2fG934/ZsnEMf23xuCGrudG+9Nv862gPe9uQ2aHMFmRyVNccqt4Qdk+zNQZg0Z5n+7F1FnYf/Thexqeeemphv+3bt6+9rq5bMI9VvG9bbbMLIZ5HaLILMRFGV+PnKgtzazEXDNuv6sZhY3h16IwzzljY5tXuzKUTx2cBGtHN4lW/TD2MMFODuSkz06gPVbdcdYwqTI1n5op/tuz7wVR8FoDk74FX2+N+UeXOTDv23Ywyxu/geuiXXYiJoMkuxETQZBdiIoxus8/tEGZrMjsuS7AAuM2e2djMNRbHz2x9Zv8xm53ZntWkjeoYzJZlribmQvPHxWeWJW2wa4lhryx01MPcTtm5+yT1MPw42foAwENdq+sn7HtbQb/sQkwETXYhJsKoanxrbU1FYq4Dpp5XPl9v/CwqjEV+bTRmBjMnqll7XrUb6trz9IkYy47rY05kMjLziqm3bL9q5CEzoTzVDL44DhuTRdexyL4qmUvbo192ISaCJrsQE2FUNd7M1lSWPmWBstXhoauaTPXyY2alf4DFlVdWjIAlMzB10R8XV6mZKZAlfjB1P27zcvnx+qjPfowh6n6Uf6h6m40/1CSpPk+m+sf7WJE3kj1Pap6kW4QQLyg02YWYCJrsQkyElbnehkaFMZfRkFLS8RjvFokRXF4uvx8raMCypJj7ke3H7Dpf6riaSchcnSybqlLaGFhc02B2f5QjG7/P/ai6ANkzqxbO8NcZvzts7SNbP2FrB0MKX+qXXYiJoMkuxERYWQ26ofW3PawIQBw/S+hgEW6RrK57VNmqddWqkYIsUaVStGC9/apRhJkbDqi7kKpmDXOlZve+z/jVbivMjcgSXPxxTz755MJ+rOZf5i5j9RGz760i6IQQmuxCTAVNdiEmwujhspu1zZmNWu0Ey2pzM3s7c41Vbe+4rbpf9Zrj+2rPsqoLs0/4ZrXrKrO3M/lZRmO1H12f4g8sRNvb5v459clUZIU7s/0ilevZ8JfdzD5tZkfN7C732flmdquZ3d/9f96GZxJCrJSKGv8ZAFeGz64DcLC1dgmAg917IcRJzIZqfGvtP8zsovDxVQAu717fAOB2ANdWTjhXRYbWfK/We2Pjs/ZGrAZ5NYOq6qph8nuiasey2bJzMXfVkKIcccyh5hWrzTbEJIlkRSOiu5RF+bFIQR+xmBXbiEQXZmZesHuaue+2IuttV2vt0e71EQC7Bo4jhBiJTa/Gt9mfkvTPiZntN7NDZnbo2LFjmz2dEGIgQ1fjv29mu1trj5rZbgBHsx1bawcAHACAN77xjW2uSnn1B1hUbaLK5tUqv1+fNkB+DLYqy9Qgr6ZVky8i1Q6yQwtgMBPCU01OYddZXXGvmkbM5GGlxpl3JSv13Cc6jd1Hf++ylf8Ii7hkUYlMxqWsxifcDODq7vXVAG4aOI4QYiQqrre/B/BfAF5tZo+Y2TUAPgLg3WZ2P4Bf7N4LIU5iKqvx7082vWvJsgghtpDRs97mtkyftkuZfdkng4rZdVWy2uVRXuZqYvZrlpnHXHvVVkXMhqzWRY/3zY8Za6Fn9isrPDGU6joLe+7MVcZaZVWjDatuRDYGy1TcSptdCPE8Q5NdiIkwuhqfRfowdStzlfVJAsncWn2SOzIXTNwvc8dEGVn0HlPZmFrsj2MRXdWkkCE16iPVWvlMvc3cnvE45kpl5pUnbquaAv7e9+mamxXOqCYGrSfzeuiXXYiJoMkuxETQZBdiIqzM9cYKPVb7kjFbuZodx7ZVbauIt7VYhhMLg2XX6QsmMLuu6qKrunhYiGbMzPM2KnM3sn5uLKTXw1oxZ2sObL0nhnJXs8/Y94PJWM3IZDJWipzql12IiaDJLsREWFndeEZVBWJuJzYmU2lZPbBMnWMuESZjNaIryjGkbnykGuWX1W6PxzG3XDViLNZa96pqtS1SxMvvx2M9ByJVNyhrz5TJFM/t71vMjmMqfgX9sgsxETTZhZgIK1Pjo9oUV609mereJ4IuU91ZZFmUMTMFmFpZVWHj+NUWVUMTSZjKmV1bdRU5wpKQ/DZW1KF6H6OMcdV6yBj+exATflhBDA+LwvPn8+Oxc1UToDz6ZRdiImiyCzERNNmFmAij2+yZrcHs0Gxbn2KLmX0Zz+XtJFaI0VMtQsHkYLBIvup6AXMjsjH8fn1syEzGKAdbZ/Hj+3vKvh/V6MtoN7MMQVbbPnue8TqrWYbsflRcrmrZLITQZBdiKozexXWuflTVLSB3/7Da8H0KHGT7VSPyorze3VMtpsC2sU6zTNVjal/12ljSDSvWkKmZ8fOq6yo7BuCdT7O698xEY+YhG599h1lt+Mzsq7qPM3ki+mUXYiJosgsxETTZhZgIo9rsrbU1myKGx3o7rNorjYUdstDOante1uaY2bzMph5iX7Jj4n3M7HSWORfx8jNbk2XEDXFTRrJCHPFa/HuWKVZd72FUMzLZmkC1nfhG587Gz6i0f3qZmd1mZveY2d1m9qHu8/PN7FYzu7/7/7wNzyaEWBkVNf4ZAH/QWrsUwFsAfNDMLgVwHYCDrbVLABzs3gshTlIqvd4eBfBo9/oJM7sXwIUArgJwebfbDQBuB3Bt9cQsw4mp59kx8bhq+yc2RrU1MFORqyZJhEV0sZpuHq/iR3W/2qK42q6KFbbwbN++feH9EJdrPFf1mVXVYGYCsvvNTNFqpqI/19D6hRm9FujM7CIArwdwB4Bd3R8CADgCYFefsYQQ41Ke7GZ2NoB/AvB7rbXH/bY2+1O17p8rM9tvZofM7NDx48c3JawQYjilyW5mp2E20T/bWvvn7uPvm9nubvtuAEfXO7a1dqC1tq+1tm/Hjh3LkFkIMYANbXabGRGfAnBva+1jbtPNAK4G8JHu/5sqJ5zbFtV+bkA9nLCabVatGhKp1veu1hlnlXaYO4ZlgPn3fj9m/0WyzCs2Bivg6MdjYwxtTc2y6oZkGTL3WvXZsjGZ24+5EVmfwAoV5+LbAfwmgG+Z2Z3dZ3+E2ST/vJldA+BhAO/tfXYhxGhUVuP/E0D2J/FdyxVHCLFVjF68IlOlhhRY7BNtVG3TUy3gWHXpRHWrGsXl1bk4BnN5Ze421oaYFfBg7iQvb5TDZ8sx9x0rJJK5H5kKG1XfLKKwWrAjnpuZh9XCJ9WMTyZj5o5V8QohhCa7EFNhZTXooqrE2gVVkxk8LJIqU5fjuaoqPlvZZmpVVDk91eISUf5MfR4aQTe00Ee2ks4Sd1jRCFZnzkflsfvGvmPVGnfVbrhDo/CqnYizCDoVrxBCaLILMRU02YWYCKMXnMyKBAxJzGe2PbPdqrW5q2Mwt1Y1sy2em8nhz83cdz/96U/TczP71duDfg2AFciMz+iMM85YV34WORmv09vi7Jn562TZjgyWUcbWFbLxqxmTcVt1TaBPROTaPhvuIYR4QaDJLsREGL0GXeZ6YxFMWVtf1koobsvcXKxtUVUlZDXqmYuHRdexmuxV95KP6GLRWFHd96q7Vx1j++Mf//jHqRxZnb84hr+2M888Mx2DRfKxJKpMve1TXKJaD5A9d9biO3ORsrp4WZSfIuiEEJrsQkwFTXYhJsLorre5LcMyqFjWW2wbnO0XbUMmUwZbE2BjDK0Rnq1NsGuO2zJ7Prpq/H5xDC+Ht99/8pOfpGPE++2fJwsL9i461hLay88y29gaDCt84qlmXcZxmCuyWojD3zdWtCT77ihcVgihyS7EVFiZ6425N5h6y9SvqtvCE1X1ak00D3OhRRcJa5nkr9OrtFG9ZdlVmfsxusmGqPHxXvkIt2gmZG2rWWGIs88+e2FbFrnGVFU2PlOzmYrMioVk6nkcn303s4w7Vu+uWk9vQdbeRwghnpdosgsxEUYvXjFXU1gCSlytzKLm+hQZyLqAsii5agdWVpcsqrceVlCCfe4j3lhSSFWtjNf1xBNPrLst7udNg7hC7u9rtbVSfBZ+zKop16e2nIeZV9UkLeZRYmalN3mYOZHJC/Brm6NfdiEmgia7EBNBk12IiTB6BN3cDutT6DFzTQxxPwDDIqLiNn/umDXGWghXbTJmy7I1AW8r+oi36HrzLrUo/w9+8IO1194tx9xOZ511Viojy47zmW7xO5HZuczdyAqJeFdh3I9F+bGWTFmhkj49DbKox6HrDxkb/rKb2Rlm9lUz+6aZ3W1mf9Z9frGZ3WFmD5jZ58ysFp8qhFgJFTX+SQBXtNZeB+AyAFea2VsAfBTAx1trrwTwGIBrtkxKIcSmqfR6awB+2L09rfvXAFwB4APd5zcA+FMAn9xovLnK1UfNybquRrXPuzCi6yNzmzE3C6u5xtRx1lW0mhBRdd95dTzK5Y+LquLjjz++9vpHP/rRwrYTJ06svf7hD3+IjBe/+MVrr5mbkiXFeBOCqdLVNlFRjuw7wQqkMBWfJckwOdhzzxJ0mJuy2qZsQYbKTma2revgehTArQC+C+BEa21+dY8AuLD32YUQo1Ga7K21Z1trlwHYA+BNAF5TPYGZ7TezQ2Z26NixY8OkFEJsml6ut9baCQC3AXgrgHPNbK6f7QFwODnmQGttX2tt386dOzcjqxBiE2xos5vZTgBPt9ZOmNmZAN6N2eLcbQDeA+BGAFcDuGmjsZ577rk1V04sdsBcat5m8rZndM2wYoCeauveaOdWw1k9LMOJZcQxWDFK725jGWv+/WOPPbaw7cEHH1x77W12H0YLAHv37l17HW3Uc845Z91zxTWAc889d+01q4/vn0tcw/AFMFiYKnu21X5uzOXF7P6s12CUi40xxE73VPzsuwHcYGbbMNMEPt9au8XM7gFwo5n9BYBvAPjUpiQRQmwpldX4/wHw+nU+fxAz+10I8Txg1Ai6U045ZU3lYllprC56lmUE5C66+J6pQyxyjWXcVeQFeKufLDOPuatYAQw/RoyS8+p0VOMfeuihtdd33nlnKoc/VzTLvGrNMufYc/Hqut+P1aCrmk3VtlCRat14to2Zh+xafDQji+RLZdhwDyHECwJNdiEmwsqKV7AOpqywBVOVqnXnWDufqnpXVeP7lCXO9otRcl69ZWNUa67FRBWfCHP48M88qrE905EjR9Zev+pVr0rl9zD1M5oCmerrTQSgXhyj+h2Lq+D+WqIKniVHxf38d7P6/WbJYkyODP2yCzERNNmFmAia7EJMhNFt9rndwaKIov2R2ajVgo1A7pqIdiLLMMta8jJXYZ/iFZlNFu1+b7NGe95fjy/WEO1yv99LXvKShW0vfelL116/9rWvXXsdn9muXbvWXrOCk6ylkZeRrZew+8GyHTNbtlpEMo7J6tKz+vJVe7u6FsSyKTP0yy7ERNBkF2IijN7+aa4mR3WI1Y33sE6cTJ3OOoJWo+mYXPFa2PhV+atyRTdUVrCCqXk+aQUAXvGKV6y99okqscjFnj171l571R/Iu+iyIhfxWvy+3u3Xp6hDtU5htTAEc2Gy1mEsurPaHbgaoZfus+EeQogXBJrsQkwETXYhJsLorrdKwclI1kOLuVmY+2RIAUE2fp/QX2aXZ3XHo/0bM9iyMfxxcQxvp7Pw0AsuuGDdzwHgRS960dprX3wSWKwjz+RgYaReLp/x5d11QJ4dF8dgYbWsuAQrWJHZ933CpKvuwWrPgQz9sgsxETTZhZgIo6vxcxWJZf5EMhWIqWKsqAPLcKrWFmeteFhWXTXKj5kkTPXNItJYfTdmDnl1n0WunXfeeQvbvMxepqiC+/sRo/CyTDd2v+P4rG11NkafuoRZsYmq23a9fSvyVtuJLxyz4R5CiBcEmuxCTISTpniFV4GYyskihbx651dv4/isXG81wcXDElrYajwr5MDMFT9mjDrLTIhYeMLfq7j6nHVWjdfpzx2v06/UMzXev4/quTcTsnZSQF5qPMqVfQcicRsz7bJiE0O6rMZzsRZSrJZfhn7ZhZgImuxCTARNdiEmwqg2u5mt2R19WjZnGXHMNca2sewklrGWrRcwFwkrghnXFbzMWaEMYLFgRbxObwOzVlPMZvfjM9vW28rMBeht+2qRC2Dx2fh1BBZZxuzcbGyARz1W12DYmgBbC/LPIouirMrI5lX5l71r2/wNM7ule3+xmd1hZg+Y2efMbP2cRiHESUEfNf5DAO517z8K4OOttVcCeAzANcsUTAixXEpqvJntAfCrAP4SwO/bTFe4AsAHul1uAPCnAD7Jxmmtrak3LIKOqcXViCi2jSWjVN04rBWUNwVi4keWkAMsqmBelWY1yBlelY7n8nL5zq/AotvMJ91EtxlLzPBqN1P3M9MlbmMuKRaFx9RiD/v+scIqXpbqd7MaPcpMqGwMet50yyJ/BeDDAOZnvwDAidba/Bv/CIALi2MJIVbAhpPdzH4NwNHW2teHnMDM9pvZITM7dPz48SFDCCGWQOWX/e0Aft3MHgJwI2bq+ycAnGtmc31yD4DD6x3cWjvQWtvXWtu3Y8eOJYgshBhCpT/79QCuBwAzuxzAH7bWfsPM/gHAezD7A3A1gJs2Gsu73ljWDst+qhTWi8cwov3LssGyMFtmQ7IiBrFGvR+H2bLMVvb3LlsDAPKCkECesRaP8bZ+lNHLwdotswy+LNsxjpHZzXEbu28sy5DVfM/uFbP7I9WilaznXIXNBNVci9li3QOY2fCf2sRYQogtpldQTWvtdgC3d68fBPCm5YskhNgKRs96m8PUIdbWiRUZYCoQKyiRjVFt68vOxcwEpi4yc8LD2mh5tc+704DF6L0YXZepu/GZnX322evuF+XwMrLCE/Fa/PmY2cHMJlZkxFPNhGTX6V9XoyPjccw96OdFJuNSIuiEEM9vNNmFmAijt3/KIn3YKnsWPcUi16rFA1jHWOYVqEZcVUtaA3mhCLbiHtXWrMhDNF28WhxVzkwVrJoMcRsbgz3PzLPAVNV4T7PvTp9Oqix6L0tiifeDFWfJvA59ksUqpaX1yy7ERNBkF2IiaLILMRFGL14xty36ZPRkNg1zYbDot2jXeZg9nJ2raq8C3JVVjfZi5662lfY2fHRr+XP717Fopbf1mS3OrtnDIuOYvc3s4cwtR11UPSIiM5cuu9/smbECLOz7LZtdCLGGJrsQE2F011umZrLItSxyiKkyVVdeVLmzmmJxTFa8gkXosRZB2X7Mvcai8Ng9rdbH9yo+a//EYCZUtUMqc3+xWnseFgnHCpp4mLt0SKfWCCtMwp7n/P4so3iFEOJ5jia7EBNBk12IiTB61tvcVurjNstslT5hqlmPtWiv+m2s3TIrJMDWFZhLzcPaLTPbMMuuqroDmVx92g5nhTjiPWXhodm6BXNJse8Es5vZWg2TP1sj6BPqmo3fp1+cXG9CiDU02YWYCCtr2dwnwihzDbFCBRGvnvv9WF13VmiBuddY9lNV5WS12YZEUjFVnamAVbdWHCNzD8ZrqboYmelSLVDBVPXs+xHlqtaeZ1F47F55uaIczC0XC76sh37ZhZgImuxCTISTpgYdqy2XrQJXI9CAXO1m6njEq0os+aJa2ri6LYuWAngEHYPd70x1rxbzAPLIuzgGU32r3oSsTRSjT626TM2OMFWdmYdZkRGWzNVnpX6OftmFmAia7EJMBE12ISbC6MUr5vZJtHOZXVS1yZgdWm0JzezEzA5l9hOrhc6i31jd+Kprr9rSqDp+nwg6D4tAY9eS7cfWe9i5s6IcAHd5DbHF2XVWo/CqmXLAz+Sn61iVgbqmjk8AeBbAM621fWZ2PoDPAbgIwEMA3ttae6wsnRBiVPqo8e9srV3WWtvXvb8OwMHW2iUADnbvhRAnKZtR468CcHn3+gbMesBdu9FBcxWJJT1EvNrDVNOsuASwqILHjqaeat25asshRrXQAnPBsDFZkQt27qxGXx8Xo6eqZlcLcbDCEzEi0j9rf11MRWbfzWp31j51A6vJOpt1uVZ/2RuAL5vZ181sf/fZrtbao93rIwB2FccSQqyA6i/7O1prh83s5wDcambf9htba83M1v0T1/1x2A8AL3/5yzclrBBiOKVf9tba4e7/owC+gFmr5u+b2W4A6P4/mhx7oLW2r7W2b+fOncuRWgjRmw1/2c3sLACntNae6F7/EoA/B3AzgKsBfKT7/6aNxmqtrdmRrNhBJOun1ccFU+2jVrVD/XgsBJTZ832y2TzMHebfV21NFgbLbOUh7a1ZEU92r6pFLuJ3Yvv27euOwdYfIkMKbETYfVxGP7r5vmy9qKLG7wLwhU7AUwH8XWvtX83sawA+b2bXAHgYwHsLYwkhVsSGk7219iCA163z+f8BeNdWCCWEWD4rq0HHXBMsy6vqrmJ4tTW2K666SKrqG6s3FsnU56q7J45fdQFW67b1qR+XwZ472ze79wCve59RbXkFLN7TatGVPjJl0XXMXVotUuJRbLwQE0GTXYiJoMkuxEQYPettbgNGWzlzkcyPm8NsGmbbZ1lkzIZkrr2qjVq1m4HcpcYKD0YZs3tQrcUfjxtaLDJzkfbpOZfZwCxrjLkih6zpADw0OluDYcVKq2s8LCw4c3Wq15sQQpNdiKkwesvmuSrSp2Beppr0iUCrtv/1VNs6MRU5Um0NxVTkajFKbypFV5O/H9GkyjIQh7ZWylpSxTHieb1cLAKtT6ulOdEUYJF8rChK9jz7yFjdrxrdmR7f+wghxPMSTXYhJsLKatD16W667FXwagsftqJajfiL23zt+Th+tgreJ1nHb4uqe3W/LPor7pcVFYkys2jAasLPkDr3cfxqm6h4LdXeAux7ys5drWPHzNT5cYqgE0JosgsxFTTZhZgIo7ve5rZGn8T8jD7ujczeYWOw2uLMhmQy+eisoTXw2fpG1R3G6uhnawLV9tARf99ia+GqC3bIs2XHVaP1gLpbjl1n1T3I1nSqLaEz9MsuxETQZBdiIqwsEYapn0ytZMUUqrXlqkkJrJY9S0pgKhVzy/nrzooixPcsEcbLH6PkWESap3ot8V7547JIuLgfM4eGFuLwsOQfVmyiWjeQmVfVqMeh7b4r90e/7EJMBE12ISaCJrsQE2Flrrdqu2Jg0RYaUqACyN0brJgCy3Cqumr6uHGykMooB7PnszUNZiszNxTDh89GV1PWV21osRAWRsoyBLNnMbRfwNB1her9ZjKytuYqXiGEWEOTXYiJMHrd+LmKxKK7mHtjvbE22g/I2zWxggxVtYxFOrHjqu5H5opkUX7V2vPMbeZfx1bXrJ56tXVTNl6EqbCePi6v7Lg+7Zyzcw01E/y2WAuPmbpZP4YFGdItiwOda2b/aGbfNrN7zeytZna+md1qZvd3/59XGUsIsRqqavwnAPxra+01mLWCuhfAdQAOttYuAXCwey+EOEmpdHE9B8AvAPgtAGitPQXgKTO7CsDl3W43ALgdwLUbjJUm2bMCAVnp5KpKBSyuHA9R1SOspHW2Er3RubNtrMsqa0fEVqmZyuzP7VfZh6rPVdMlypidr9oxFli8V8x0GdKGKsrMPCjVVfxqKWlm2mVUftkvBnAMwN+a2TfM7G+61s27WmuPdvscwazbqxDiJKUy2U8F8AYAn2ytvR7AjxBU9jb7M7Puny4z229mh8zs0LFjxzYrrxBiIJXJ/giAR1prd3Tv/xGzyf99M9sNAN3/R9c7uLV2oLW2r7W2b+fOncuQWQgxgEp/9iNm9j0ze3Vr7T7MerLf0/27GsBHuv9v6nNiZnOwyDjW+ojZudW68UOirKpupwiLavO2crzOzI0ILN6fodFeWeQdey7MBcjuxxAXJst2jPj7w9oyVwtCVr8TVfdxHLNacLJaOMRT9bP/LoDPmtnpAB4E8NuYaQWfN7NrADwM4L29zy6EGI3SZG+t3Qlg3zqb3rVUaYQQW8bKEmGYq4Z1LWVJLJ5qrW+mVrIxWXQaK5LAVMJq+6esnnqUMauZ1wcW+eWfhe/CC9RdpJ5qsQbmiqwmDS0reSm7tqHFK6rPPXPtKRFGCKHJLsRU0GQXYiKMnvWWZecwl1pmKzMbr1oPvk/4ZjYe6+fGQkxZeGi1tj0bg9lvLOQ22sQZQ4t/ZvuxENNqYUpWjCRbE4nb+vSBY5lo7LgMVvjS02etaU2G0shCiOc9muxCTASr1uNeysnMjmEWgLMDwPHRTrw+J4MMgOSISI5F+sqxt7W2blz6qJN97aRmh1pr6wXpTEoGySE5xpRDarwQE0GTXYiJsKrJfmBF5/WcDDIAkiMiORZZmhwrsdmFEOMjNV6IiTDqZDezK83sPjN7wMxGq0ZrZp82s6Nmdpf7bPRS2Gb2MjO7zczuMbO7zexDq5DFzM4ws6+a2Tc7Of6s+/xiM7ujez6f6+oXbDlmtq2rb3jLquQws4fM7FtmdqeZHeo+W8V3ZMvKto822c1sG4C/BvDLAC4F8H4zu3Sk038GwJXhs1WUwn4GwB+01i4F8BYAH+zuwdiyPAngitba6wBcBuBKM3sLgI8C+Hhr7ZUAHgNwzRbLMedDmJUnn7MqOd7ZWrvMubpW8R3ZurLtrbVR/gF4K4AvuffXA7h+xPNfBOAu9/4+ALu717sB3DeWLE6GmwC8e5WyAHgRgP8G8GbMgjdOXe95beH593Rf4CsA3ALAViTHQwB2hM9GfS4AzgHwv+jW0pYtx5hq/IUAvufeP9J9tipWWgrbzC4C8HoAd6xClk51vhOzQqG3AvgugBOttXlGy1jP568AfBjAPIvkghXJ0QB82cy+bmb7u8/Gfi5bWrZdC3TgpbC3AjM7G8A/Afi91trjq5CltfZsa+0yzH5Z3wTgNVt9zoiZ/RqAo621r4997nV4R2vtDZiZmR80s1/wG0d6Lpsq274RY072wwBe5t7v6T5bFaVS2MvGzE7DbKJ/trX2z6uUBQBaaycA3IaZunyumc1zP8d4Pm8H8Otm9hCAGzFT5T+xAjnQWjvc/X8UwBcw+wM49nPZVNn2jRhzsn8NwCXdSuvpAN4H4OYRzx+5GbMS2MCAUthDsFnS8acA3Nta+9iqZDGznWZ2bvf6TMzWDe7FbNK/Zyw5WmvXt9b2tNYuwuz78O+ttd8YWw4zO8vMXjx/DeCXANyFkZ9La+0IgO+Z2au7j+Zl25cjx1YvfISFhl8B8B3M7MM/HvG8fw/gUQBPY/bX8xrMbMODAO4H8G8Azh9BjndgpoL9D4A7u3+/MrYsAH4ewDc6Oe4C8Cfd568A8FUADwD4BwDbR3xGlwO4ZRVydOf7Zvfv7vl3c0XfkcsAHOqezb8AOG9ZciiCToiJoAU6ISaCJrsQE0GTXYiJoMkuxETQZBdiImiyCzERNNmFmAia7EJMhP8HfK2pxUvli1UAAAAASUVORK5CYII=;" vertex="1" parent="1">
                    <mxGeometry x="881" y="230" width="251" height="251" as="geometry"/>
                </mxCell>
                <mxCell id="5" value="" style="shape=image;verticalLabelPosition=bottom;labelBackgroundColor=#ffffff;verticalAlign=top;aspect=fixed;imageAspect=0;image=data:image/png,iVBORw0KGgoAAAANSUhEUgAAAPsAAAD7CAYAAACscuKmAAAAOXRFWHRTb2Z0d2FyZQBNYXRwbG90bGliIHZlcnNpb24zLjMuNCwgaHR0cHM6Ly9tYXRwbG90bGliLm9yZy8QVMy6AAAACXBIWXMAAAsTAAALEwEAmpwYAAApgElEQVR4nO2dbcxl1XXf/2sGMJh5YWAoHgFTqIyMkVUP0cjxmyKC64imUfiCrDhxRSuk+eJWjpoqQCtVSdVK9pc4/lBZGtVu+OAGOy8uCEVJ6BRkRYow4xoSXkIgFGTQDMNYzDB+4212P9x7rv/3z13/59x5nufcwWf9pNHce8+5+6y9z9nPXWuvtdeK1hqKovjZZ8uqBSiKYhhqshfFSKjJXhQjoSZ7UYyEmuxFMRJqshfFSFjXZI+ImyLiqYh4JiLu2CihiqLYeOJM/ewRsRXA3wP4JIAXADwM4NOttSc2TryiKDaKc9bx3Q8BeKa19iwARMTdAG4GkE723bt3t717967jksDp06dnryNi7hi/1z9iem52HvPWW2+l1+Zj/DkAnHPOOQtfOzkAYMuWxYqW64u258Yno+9YKW68s3Hd7Hum92Lr1q0Lv+fa0PvgxrTvj6UbU26j73lKJ/Pzzz+P48ePL2xkPZP9cgDfo/cvAPh594W9e/fiW9/61pxwHXqTGB6A1157bfZa2+CJpROVbzp/7/XXX0+v+4Mf/GDu/alTp2avT5w4kbZxySWXzF7v3r177hhfW+U///zzF8rx5ptvzr1/17velbbx4x//ePaax8NNJB2rc889d/ba3Rc33tkfQ25b32s/uW8sr57HfePnAwAuvPDC2es33nhjoUza/nnnnTd37Cc/+Ukqv/Z7kUzA/POnE5rb4GP8HZVf2+ieiY9+9KML5QEGWKCLiAMRcTgiDh8/fnyzL1cURcJ6ftlfBHAlvb9i+tkcrbWDAA4CwPXXX9+6v6j6l7WvOsR/dfWvKv/F17/OfD3+669/qfnYBRdcMHfs5ZdfXnhtp9q5v87bt2+fO5b92urY8DEdA/415GvzdfVaOlbcphtT/RXN5GCNRe+7+9VnjYmvtWPHjvQ8/iUH8l9D12c3VjrerN3wWLlfb9XGuN98nj47rGHos9mNo1X10yNr8zCAayLi6og4D8CvAbh3He0VRbGJnPEve2vtzYj4NwD+AsBWAF9trT2+YZIVRbGhrEeNR2vtzwD82QbJUhTFJrKuyb4sETGzQ9T2YRtKV7fZ/mEbSW0a/p6zmfhavHqt31Pb7T3vec/sNdvvuorOcqmMbK+pfcXXYzvOtaEyst3oXIDchq5u8/X4e2wzAn79hG1xllH7/MMf/nD2+qKLLpo7xueyB0L7nH1H4T67NSNdO3DuQR47Pqbta5sZzoPC19L2u3F03pMKly2KkVCTvShGwlmjxrP6sUzADeOCPLKoM1Vv+VqqnrP7Z9euXbPXqt6y+0fdU+wycaqec+05dxiPHV9b++JcQWwOcfvuPKf6slmg94XlUvMtM4d0vPlaKgerwty+mkbOvcb9zoJogPm+qKnB91rvmQsY6tv+zp07Aby9X0z9shfFSKjJXhQjoSZ7UYyEQW321trM5nEuErVR2cZhe01tSNem2kkdzn2nIYnZxgwNe8023ej3dL2A7TW2z9Tu5/NUfrYp2X51u6n0WLZ2oPLye900lNnp2ka2+Ue/x33OQkX1tV6P74Xa/S6M2YUuZ+5HXTtgFyO7EYF8c5e7tzpufcLN65e9KEZCTfaiGAmDq/GdmuzUN3UrsIrCapO6KVgdVXUu21+tKhUfUzWKr83fc3vFtQ23I477w2qmqvEsh7aRJVpwY6rH3v3udy+UQ9V9PqZtsCrs1GwX1cZtuog/Pk+fK1anXV/4fqqK76I2M7k0MpN36v3oRz+aO5ap4Hrf1QRi+pjH9cteFCOhJntRjIRB1fgtW7bM1DtdvXUJDlh1yjZ6APMqjB7LIrBUpXKbZLLNDKpuddFMa7XBaa5URlYP3Sp439VnVbP5mEvDlI09MN8XNYeyDSLahjPLuE3up0baZYlJ9Fzui3vGbBSaeFfYPORnSdvg1Xi9n1kyEh1TNj3U1Oiz0aZ+2YtiJNRkL4qRUJO9KEbC4K63znZUG4PtHbVVMltc7S63yytLB6yuCm7DRZ3xtTXJoXPx8PXYxQXM23lsy7pEC7rmkCV5cEkO+659qG3vbFS3w4xxO+Iy9J6xjM6txZF32heXPtsl3+B2Mnejnsf2OzB/z/j5U7t827ZtC7/D7We1B4D6ZS+K0VCTvShGwqBqPJCraq7KSVa1RdtitVhVJVbhXNQWq5VqCmRqscslrnJwm7qhI8vD7qLfXK71bOMOMO/mcuozX0vPyxJDAPP9dJGN3DftJ7/nCDTtM7txVT3ne8HPmKs5oMf4PqmMrGo7E/PkyZOz12r2ZSbsMjnoujYqB11RFDXZi2Is1GQvipEwuM3eoXaR27mUofYZt+HcSVlSRmDeZtdjme3pdrY5N6KGh/J71xd+75I09t31pu1nIawuqYhr360xODmyXV4uKaNLFuJKXbuwYF53cWPg5HLnsQ3v7HLnHuyeM1sSPD0yJSK+GhHHIuIx+uziiLg/Ip6e/r/LtVEUxerpo8b/AYCb5LM7ABxqrV0D4ND0fVEUZzFrqvGttW9FxFXy8c0Abpi+vgvAgwBuX6utiJipZqrKONWdVeFsNxUw7yLR6KMsWYOaArxLTVWiLOe7c5GoGs9uFt31lrkHXQ5yHTd2Q/Exl89M5c8iAPU8t3Muc8u5PP3OtedKOzt3U5aHz5lvOqZZQpBF7zu0n3w9fSb4/vbNX6jzxyW2mLW35hmLuay1dmT6+iiAy86wnaIoBmLdq/Ft8uc3zYUTEQci4nBEHOZiiEVRDMuZrsa/FBF7WmtHImIPgGPZia21gwAOAsC+fftap8aq2sGqnm4QcSonw6qSi5ByiQpYlVZVia/tUlpz3zR5BatwGkmVbbhQtZXPUxWW23Rqq4uuY7JVdcCXhuKxY/nVe8BtuA0ufD+1DW5fxyrzvGjFWD7mqutq1GP2XDmTRM0y7icf037yvc3mz2bkoLsXwK3T17cCuOcM2ymKYiD6uN7+EMBfA3hfRLwQEbcB+DyAT0bE0wD+2fR9URRnMX1W4z+dHPrEBstSFMUmMmgE3datW2f2+DI5sTN7XtvI8ssD+aZ+vS7bTGqzsxzqPmH65p53CRxdgkVXGor7k9nNwPx4uGQKfJ7ag/w95w7jMeDda8D8mobeC15L4PN0rcOVn2aySDWVV9cwWC4db+43H1vGPZiVrXauTn0mOpkrb3xRFDXZi2IsDKrGnz59eqZ+uAqszjXh1D5HlgNMXSQu91uf3NyAd5s59Txzh7n8bmpOZCptX1ekyug2j2QVTFUuvpaaDK40FLfP5ps+H9nmH712thlK29D2Wc126j+75Zyr01VxZdQU5Ws58zOjftmLYiTUZC+KkVCTvShGwuDJKzq7SW0rtkPVPcP2oLOp+b1LJMAuGJcA0eWed3aiS4TgZGQ7jO0/F2LqQl2dq8mFgOpuvOxa7tp8z9xOLt6lp3ZoVsJa5WU53NoEf8/Z9m6HoFvHcTsm+Z45e94lqHA17Vxu/tl11jyjKIqfCWqyF8VIGFSNj4iZuuFKDWsJH1aJXEQXH3OldTN1XK+lqm+WyEHlyNxOgHcXZru8VCV0CR9YXXQqstsRpy6fTA6XJz0rfa1ysNrqIgpZBVd3JsuvcrDLjsdK5XDPlXOlZs+cjiH3TZ/NLLrOuWadyzWjftmLYiTUZC+KkTC4Gt+pTy5BgKpzrIq59MguN1uWmtlFp6namq2UqgrFaqXbmJGV8AF8Pj1W4Zw6x2OgbXC/3aov91n7ye9Vvc1Wpt2Y6r3IotqWyV+YlexyG4h0PPiZcJuSuA19vs8kQYgzNbKyZetKJV0Uxc8GNdmLYiTUZC+KkTCozd5aS10EbJ+p/Zcld1R72LlPMtvTJRVwiSdcRJfax4zLf57tIlO73K1bZLveXHlo52Lk15lLDvARXC6JIq/H6LGs9JRei9cHXCkut0uPcTKqre9y4me4dQu3DtKnrHTZ7EVR1GQvirEwePKKTg1S1dRVT922bdvsNavIqn6y2qr52tlFkm3S0DZUncvcM079VHNi586ds9eq7mcRdNoGX9tVsnUmj8uTx/AxjsgDgO3bt89e6xhkudBcvQBVQbkNt5kmGzc9l/vsxqOvO1O/5+67i6rMTCV9Plz+wu7cykFXFEVN9qIYCzXZi2IkrGzX2zLJA7KStuo2Y3vFuZpUJiYrV6xyuOSC7DJxNdC0/cztov105ZzZNnQ7+JwNqfb3IpmAeRvehboyLjFiX5vd9cWV8T5x4kR6rSx3u7bpbGIXcsvPlQul5fN0Pcblx3cut9l31johIq6MiAci4omIeDwiPjf9/OKIuD8inp7+v2vNqxVFsTL6qPFvAvit1tp1AD4M4LMRcR2AOwAcaq1dA+DQ9H1RFGcpfWq9HQFwZPr6VEQ8CeByADcDuGF62l0AHgRwu2try5YtM3XJqeCqLvIxF/3GKpu63rK8bS7ZQV8V3+VmU5XNuZC4b66UkDN5srHSa2WmETCvFvM4uvFWUybb+efyu+mxzKXmyiarjC4vHONy7Lt87Swzj72LzFTXHp/rdvc5E7YzPdx1l1qgi4irAFwP4CEAl03/EADAUQCXLdNWURTD0nuyR8Q2AH8C4Ddba6/ysTb5k7Zw5SIiDkTE4Yg4/PLLL69L2KIozpxekz0izsVkon+ttfan049fiog90+N7ABxb9N3W2sHW2v7W2v5LL710I2QuiuIMWNNmj4mh8xUAT7bWfo8O3QvgVgCfn/5/z1ptnT59emZDqR3KtoraHWxrcS5058ZRG5XdKXxtl1wwywYC+F1TzlXD31ObLEtKqP3k89Q907dks7PZud+cPUdLJbsQ02wnmo4Hy6v2cLY+o+sxfXfEZUkwl5FDxzF7DtyuS72ffIxDw7UuHn9Px7t7XlxmpD5+9o8B+JcA/jYiHpl+9h8wmeTfiIjbADwP4FM92iqKYkX0WY3/KwDZMuYnNlacoig2i8GTV3SqpSuP4yKk2P2lKhSrQy76iFUsFyWnsIrIZoGqbC5KzpUNzuRSc8JFjPF7jgpzLkAXAciuyGVKZGdljl30mDvmcrJnyU1UZm6Pd+wB8/fT1RJwOxx53FTN5pJartxyVi4b8ElIu37XrreiKGqyF8VYGFSN37Jly0wtVHWZVSdVo7J86k597qty6nlOjcrUURfhpivY/D1VnzUyrEPNlUy9BfJkEK48kzNl3Coyj532JSsvxWaByusSiTgPhysdxtdzeeNdGSoeO72ffC6PT5YjbpH8WVKNZfIjdvK71fj6ZS+KkVCTvShGQk32ohgJgyev6GwKV2NNj2W2rLPd3K46RiOp+ibHYNT+Y7tOj7l1hczO7RtZpvK7MXU757LkFW5HmdriPFbshnK5+N3aBOPsbX1WssSgro6arsGw/H1lXCZJaLYe4XZF6rFuTDZs11tRFO9carIXxUhYWfknFwXlcr6zCrdjx46585xqyiqQU2/dJpkMPc9F+bnkFZn8bsOM4spoMa4kUxah51RYjejia/M9c/UCXEQkt6GqOn/PJRJxrjE+prnhuW9qrvC94GPqAuR7rfn3uT8uB77beNRR5Z+KoqjJXhRjoSZ7UYyEQW124Ke2i7Np1J7n987GY3vH1cniNtzuOBdKy7ass6FdeKi6kLLSwGqHOfcgj6OTi+VwIaB9a8Kp3c/2trPtXZh0lrRSbd6+pZjZFtfnz/XNhdnyM/Lqq68u/A7gS3VnLkGXCFRDl7txLddbURQ12YtiLAyuxnfqr6o5rNq4srsuMQSrQ9pG9j13nkv44JIuOBegI0uS4KLCnPyMU59Z/QTyPHY63i4qLFPBXXIQVyrZqafO9ZZF0Kl5lbUH+DLKfO/75rFT1x7nmmMZXQRdVhK6dr0VRVGTvSjGwsrUeFXZWJVUlZDhY1llVuDtalSWK0zVPrfpgVdw+27uyDaVaBvAvDrnIqmy6qYKy6vqvcvbxvnS+JjzCqh6zqoq98VFDTqzidvXe5up0no9Pk/VcbcK7iIuGe6LququRFVmpurz4VJmLzpHqV/2ohgJNdmLYiTUZC+KkTC4zd6hNp7LhZ65cZYpQ5zlMXeleNTezhI4qg3m8tfz9VzCyb4y6lhlrhu1+/k83WXI712pZB5jLluk57qSWi7RY5YD342HS4rJ4+ESkuoxF5mZrf+4kuGu9DWvs7hdhryuAvy0by6CcM1f9og4PyK+HRGPRsTjEfG708+vjoiHIuKZiPh6ROSrakVRrJw+avxrAG5srX0QwD4AN0XEhwF8AcAXW2vvBfAKgNs2TcqiKNZNn1pvDUC38+Dc6b8G4EYAvz79/C4AvwPgyz3aA/B2VYZVJZc0wrlZ3AYRVoFcpBOrt+o+yRJgqKrO6qhT59wmHBdpxudp+xnf//7302MaQceqJL9WeXl8nFuOVd2dO3emcrjEFk7tdu6mLAnIMjnwXS53Vesz+LnVazuTkOH7rmZTFpnK9K3PvnVawfUYgPsB/AOAE621bvReAHB5n7aKolgNvSZ7a+2t1to+AFcA+BCAa/teICIORMThiDh8/PjxM5OyKIp1s5TrrbV2AsADAD4C4KKI6HSfKwC8mHznYGttf2tt/+7du9cja1EU62BNmz0iLgXwRmvtRERcAOCTmCzOPQDgFgB3A7gVwD19LtjZV7qB3+XLzuxSVw65r4vHJSh0iQr61qZzSR9d/nDGhQXr7i12yXBfdP3h2LFjs9cnT56cO/bSSy/NXj/66KOz15rk4v3vf//stUvgeMkll8xe69oBj4Ha7CyzC1Nlu1n7yWPn1gBc0g+XNILdZjwGKq9ba+JjPB76PPRNIJrRx8++B8BdEbEVE03gG621+yLiCQB3R8R/AfBdAF/p0VZRFCuiz2r83wC4fsHnz2JivxdF8Q5gZbveXM4yVcFZVXUJKliVUZUwc+0tE9HFbbJ6qDnRWF4XcaVRUNw+y6VuFjZr1AzhfvJ5bieXut4efvjh2eu777579lrXXD7zmc/MXquKz+o0v96zZ08qryvn5UwvHjd9rjJzq2/Ofm3TuXt516IrP63XznZyLmNq9EmSUrHxRTESarIXxUgYXI3PVuNdnjJWo1ziCVaHVAXKSjLpijhfS00BVtf5mCtHpOqVSymclUlSb0Sm3mr7PD56HpsGrposX/vIkSNz5x09enT2+tpr50MvspVjNXm4n24lPdvIBPiIy2xjk/PCqHnonhfuj0v0wfKfOHFi7hiPAb/WNtjL4yIKM+qXvShGQk32ohgJNdmLYiQMXrK5s7dcggC1wTJ7Xu1Cl8SAbVm+lrre+NrO7nK5213CSecmynLnqxzssnNJOrgNt6Ps8svn9zB94AMfmL2+5ZZbZq/ZtQQAe/fuXSi7XtslFXGJOxl2D6ptz2248tYuEs7l6c+SlgDz/XY2O4/H9u3b547xepJzAbqSY13fKuFkURQ12YtiLAyuxnfqjCsXpGRll5yqpMcyFV9VcLfZIHMBKs71xsdUFcty16m6z2aI20zDkXzq8mJVUmXct2/f7DVHzakcrO7qeGTRaqqCuxz4mZvSlf3SNtj02LFjx8K2F8nFOBdm5hJUGV1kHJsXzq3qzJA+1C97UYyEmuxFMRJqshfFSBjUZt+yZcvMznMJIdX+Y1cTH1N3Ersw1Jbl9xwCqjvK2P5ztjLbU660rh7jfjp7260/OPddFvapiR7Z5lNXJ7+/+uqrZ6+XqYGWJZl09QL0GI+x3ifG2dS8ruBCYp3r17nD+FlytQ94/USffX7PIbG6jsDrLrt27Zo71rkmXcLK+mUvipFQk70oRsLgu946lUhVdVYJVQXKcpE5lUVVX86zxuqWJpDga2kkFZOVgAbm3SyulJUzNVxJZeeuyo653VpqDnF/XAIMVk37RsY5F53C7bvIxqxMFDB/n1z5bL4vbkemq3eQtbdI5uwYt+fMN1b3+VhF0BVFUZO9KMbCoGp8RMzULF15deocqyas3qqKzGqO5n7L2le1j9U0VwbIqVssl8qYVTfV67G8KqNbsc08EjoefEzHhlVfzi2nqiMfc6vsWQpuYH68dYNIplrrfXH5C/uaNYyu1GcJQbRNlxyDx0fNQzaVuC8a9cjjqKaGeiEWUb/sRTESarIXxUioyV4UI2FQm/306dMz+2SZqLAsb7fbUabts73tEggyahex3cvX1oSQWRIKwCe0ZNhOdGWZ1UbNIvvUfZcluQDmd4rxMd41BngbmPvGbbjEJGqLZ23ouLk1jKwcssrh1jfcTku+1y7xJT+36u7N1n+0nyy/3k9Xqnl2zppn/FSIrRHx3Yi4b/r+6oh4KCKeiYivR0Q+a4qiWDnLqPGfA/Akvf8CgC+21t4L4BUAt22kYEVRbCy91PiIuALAvwDwXwH8u5joGjcC+PXpKXcB+B0AX3bt8EYYdRWwa8LlQmfVUdU+VymTv+eSDDCq3mamgEuA4Y5pP7PceG7ThqpvWVINVxnXlSrKorv0PBcR6VRdZ76xOs3uKr3vzo3I49g3F78zD7VqbuYu1fFmOdTk4TF2UX7uvnfPkjMl+v6y/z6A3wbQSXwJgBOtte5pfQHA5Qu+VxTFWcKakz0ifgXAsdbad87kAhFxICIOR8Th48ePn0kTRVFsAH1+2T8G4Fcj4jkAd2Oivn8JwEUR0ekVVwB4cdGXW2sHW2v7W2v7tQpoURTD0ac++50A7gSAiLgBwL9vrf1GRPwRgFsw+QNwK4B7erQ1s3Fc4j5n17lyy2z7uIR8LhGjsyH5e5zH3IV5ulBUtYH5es5t1tft1+dzwOfH52urrckuLx3vzNZ3OxVdgkVnyzqy0GUtMW1tXRoDHe8sDNvtetP7nu3ac2s62Vg5F9x6gmpux2Sx7hlMbPivrKOtoig2maWCalprDwJ4cPr6WQAf2niRiqLYDM6aks2spvXNKa8qlMs9z+qRSyDBbapql7lxnAtwmd1VmQqmqi+PlUaMsTrtdvA5synbOafln1gVVnMoczG6fOqqWmfmkEtu0jeasW/koV7PlRzjNlx+fLcjzrmCuW+6c657JjbC9VYUxTucmuxFMRIGV+M7FUnVob4ru5maCsyrnNoGq0BO1XEplrMVVbdSrGqlU+sZV5nUtc8eA1ZbdbzdpgpWp11uNh4r55FwuIhCHm9W45fZCMNeE1Z9XS45p8arjNnGJm2f29TnivvGppLKwfLrM+e8HLP21jyjKIqfCWqyF8VIqMleFCNhcJu9syNd8gpNHpAlMVDYxlG7ju3LPvm3F12L7WOWX20w/p6uHTiXV1ZW2iXi0GgstindWDEqI8vB9rvaiSy/jmMmr8tzr31h+fmY27GmfcmO9S29BfgaAVkdA1f2S8mSszjXb1aiqlxvRVHUZC+KsTC4Gt+pPU5lU1hFdDnCs/Mcqm71TR6QJcPQY9pP59rLSgm5RBwqP7u8eExdQgZVaTNTwN2jvi5FVbNZfj2WmQnONebMGreRhI9pX1guNwbOBHT3LDPfNErOmWgbmoOuKIp3NjXZi2Ik1GQvipEweK23zjZSm4Pdbeo2Y5ssc38B824ttd34e2zXupBbV8ONbXsXqujyqWtIaZZksm99MWDeduPx6FsDTa/nznP54DOZ9N46mz1L8Km743jHnY6Vcx0y3P4y9nz2LDnXm7bPY8d2up7H19LEl931Nit5RVEU7yBqshfFSBi8/FOncqm6waqSRtCxeuRUKueayBJKOBegqq2Z+ux2OKkcJ0+enL1W10qWyEHHw+3QymTU85ybKCuP7KLAXBQhf88lLXEljbg9LZ/kcsTxvXZuM1aLNUmHKyfO8rtdaTyO2k+W0SVWcdF13TPiTMr6ZS+KkVCTvShGwspy0Llqm6o2ZeWDVL1lNUqPsZrmVuNdiSA2E/g8p36qOsd9cckJWEYdK+6bmiH8PbdC3ne1321i4dVzVxrKpf/OPBzAfL+zRBbA/HiomcDfcyputlFKcaWnnOfCkZmOana4NNN9qF/2ohgJNdmLYiTUZC+KkTC4zd6h7o3MPgPyfO2ufNIyx7Jrueg3Z5e79Qf+ntpd/N7la3fy8zi63Vpu7SBzt7lS2tp+NgYu179GhTHOncm4ks18zCXPXCZCL8tn7/LSb9u2be4Yrzlw++6+aBvqjlxE3/rszwE4BeAtAG+21vZHxMUAvg7gKgDPAfhUa+2VPu0VRTE8y6jxv9ha29da2z99fweAQ621awAcmr4viuIsZT1q/M0Abpi+vguTGnC3uy9ExEw9VZWQ1SrNZ8aqEqs8ruqn28zgoplc1VJVpxe1rW24JAOq6mWuIVUruW99K9mq+86pwlmSB9cXF22YReQBvoRUdi9c+Sd1uWZuW+0Lj5uaZXxtfTa5TZdH37k6s/z+KiPLof3sQ99f9gbgLyPiOxFxYPrZZa21I9PXRwFctvTVi6IYjL6/7B9vrb0YEf8IwP0R8Xd8sLXWImJhBMf0j8MBALjyyivXJWxRFGdOr1/21tqL0/+PAfgmJqWaX4qIPQAw/f9Y8t2DrbX9rbX9u3fv3hipi6JYmjV/2SPiQgBbWmunpq9/CcB/BnAvgFsBfH76/z092prZcmpTsw3ikim4srjOvcb2j7M1XU24LFxR7X5uQ+Vgu1/dP9mag6sNpu3zODr3IKM2JNvO3GcX4uzs+b5jpWGqbN+z/K4Gn1ub4LFydrNLFqk7FbMyym7tQNd+Mneby7GviT760EeNvwzAN6cCnQPgf7bW/jwiHgbwjYi4DcDzAD619NWLohiMNSd7a+1ZAB9c8Pn3AXxiM4QqimLjGTx5Raf2qArLqp6LguIoK1daSV08WeIFVW/ZZaJuLVbvuH1V7dhFouaKywvHsDq3TA66TGVWN6LbOcfqtEtywe91DPgY91PvC0eCcXllIDebnDnh3GauLJdLzOFMKn4e3TPsctxlbThTI6s54PpRsfFFMRJqshfFSKjJXhQjYfC88Z0N6PK1qz3F9g8fU7v/TMo567VceChfz4Vvsg2s/XTuwSxk09nsCveT5XU58BWW2bkiWQ4NI81yqGuf+Xtq92drGnrPnNuMZXZuLb6favdnodZAvgtTsxz1zVzDbbjdlFlJ8irZXBRFTfaiGAuDJ6/o1CyXa90lZ+hbZshFH7F65EoOabRX5hZRmVy0Wt8ECqxWuiSNrnyxcxmx+8qNqduF5dxJrJJnbjj9nrbBO+JciWxGXYx9k17w2Dv3ld4zNkP4udVnODMBFW5PXYwuOWen1lf5p6IoarIXxVgYVI1vrc1UMJcjTlVwPjdbme/a79DVykz1U1XJqZWsivG1XeIGhVU4XbHNNsKoHC5PGcMy6ko3j7eLZuQxdZuLdBy5b3xM78uJEyfS9rPVZ1cFVVXwrOqvysF9cbn+++Zy12egb553juB039Gx6sagVuOLoqjJXhRjoSZ7UYyEwV1vnU2hdqKzxXmHlnMZcRtuRxl/T9tQuTI53O47Z89niSGAPCmhi7Rz7iS3G8zZdgz3RdcH3Fhxv1lejbTjcdT2+dp93YPOlerOcwkqeBxdxGVWWlzf67oCt5klwwB8+eyKoCuKYkZN9qIYCSvbCKM5uljN1JzbWRnizP0AvF3dYleLU3WcCs5us0w91PeqPrtSSNkmH3XRuQgsPsZtuJxozsXIx7QvzpzIVHzn6lymfHaGqwPgEkO4fHpOxc/GwG2EcW45TuahefT5udVx7PpZySuKoqjJXhRjoSZ7UYyEwcNlO7tPwxXZ/nY2kyuH7NxtbBe5ZJEueQDbUxzmqWsA3DdnX7tSzK4vLlyWbXO+ttpy/N6NI8vkdve5HP4ufDjb6QfM3ye3o4z74urnuQQVLrc943ZkMm4dRxNg8PWy8N5FbS6Sq2z2oihqshfFWBg8gi5zEfTN0dU3Ms6VEnKwOqdqE6vdrP67kkaKi4zLVD2Xk12v7fLrMTzeJ0+enDvG18t2r6m8eq0s/53ePx4DbYPNJj6m95Kv5ZJjuJLNOsaM2xHHfXMJTU6dOjV7reZKlptf2+C+6bGun+uOoIuIiyLijyPi7yLiyYj4SERcHBH3R8TT0/939WmrKIrV0FeN/xKAP2+tXYtJKagnAdwB4FBr7RoAh6bvi6I4S+lTxXUngF8A8K8AoLX2OoDXI+JmADdMT7sLwIMAbl+jrZn6qOqGi1xjsogoYF4d0g0XrGK5lVG32u/UUcYlO2CZ3Uq92xjExzQyLlu1Vjm4Td6MAsyPCY+3q57qEi3wMbeSriYJy8Hy67i50lCZ6u7MPJUjU9W1TbfZhfPpqSnAz6oz87jf6snpTJ71rsZfDeBlAP8jIr4bEf99Wrr5stbakek5RzGp9loUxVlKn8l+DoCfA/Dl1tr1AH4IUdnb5M/nwpWBiDgQEYcj4vDx48fXK29RFGdIn8n+AoAXWmsPTd//MSaT/6WI2AMA0/+PLfpya+1ga21/a23/7t27N0LmoijOgD712Y9GxPci4n2ttacwqcn+xPTfrQA+P/3/nj4X7GwKtSH7RkGxvZqVwAHebtdlO8pctJ6LLHPnsT3lcqEr2Y4+tzvORa65xBaudBOPD7ukXOIJhfvCbbgoPHffnT3M79WWZfubx8pFHqpNzf3Ua2cRdTo2vIPNye/adm7hPskr+vrZ/y2Ar0XEeQCeBfCvMdEKvhERtwF4HsCnerZVFMUK6DXZW2uPANi/4NAnNlSaoig2jZXloHPJA9yGCOdacOotq62spvXNLw/kkVTOJaWJOFz7rFo6GV0ZoGyzhFOf3cYPt0GEo8L0uplZ5nLDu9z2fG1V1bOkIovk6lB3pjNJuJ87duxI23G59lyij2xTkj4rzm1bG2GKophRk70oRkJN9qIYCSur9aZ2KNtuboca2556ntvVlCUb1PNcG5kd6tx8r7zyytwx3snlylazrbnM7qcsoYTaqGw7u1pyrtyyS+TAcrAt7vK6Oxdj5kJTeVXGzB2r95afJbXzed1Fn7nMFaz9dLX1WGYXrp21B/y0P5U3viiKmuxFMRaibxmgDblYxMuYBODsBrDqQPmzQQag5FBKjnmWleMft9YuXXRg0Mk+u2jE4dbaoiCdUclQcpQcQ8pRanxRjISa7EUxElY12Q+u6LrM2SADUHIoJcc8GybHSmz2oiiGp9T4ohgJg072iLgpIp6KiGciYrBstBHx1Yg4FhGP0WeDp8KOiCsj4oGIeCIiHo+Iz61Clog4PyK+HRGPTuX43ennV0fEQ9P78/Vp/oJNJyK2TvMb3rcqOSLiuYj424h4JCIOTz9bxTOyaWnbB5vsEbEVwH8D8M8BXAfg0xFx3UCX/wMAN8lnq0iF/SaA32qtXQfgwwA+Ox2DoWV5DcCNrbUPAtgH4KaI+DCALwD4YmvtvQBeAXDbJsvR8TlM0pN3rEqOX2yt7SNX1yqekc1L295aG+QfgI8A+At6fyeAOwe8/lUAHqP3TwHYM329B8BTQ8lCMtwD4JOrlAXAuwH8XwA/j0nwxjmL7tcmXv+K6QN8I4D7AMSK5HgOwG75bND7AmAngP+H6VraRssxpBp/OYDv0fsXpp+tipWmwo6IqwBcD+ChVcgyVZ0fwSRR6P0A/gHAidZatytmqPvz+wB+G0C3A+SSFcnRAPxlRHwnIg5MPxv6vmxq2vZaoINPhb0ZRMQ2AH8C4Ddba6+uQpbW2luttX2Y/LJ+CMC1m31NJSJ+BcCx1tp3hr72Aj7eWvs5TMzMz0bEL/DBge7LutK2r8WQk/1FAFfS+yumn62KXqmwN5qIOBeTif611tqfrlIWAGitnQDwACbq8kUR0e1bHeL+fAzAr0bEcwDuxkSV/9IK5EBr7cXp/8cAfBOTP4BD35d1pW1fiyEn+8MArpmutJ4H4NcA3Dvg9ZV7MUmBDSyRCns9xGTj9VcAPNla+71VyRIRl0bERdPXF2CybvAkJpP+lqHkaK3d2Vq7orV2FSbPw/9prf3G0HJExIURsb17DeCXADyGge9La+0ogO9FxPumH3Vp2zdGjs1e+JCFhl8G8PeY2If/ccDr/iGAIwDewOSv522Y2IaHADwN4H8DuHgAOT6OiQr2NwAemf775aFlAfBPAXx3KsdjAP7T9PN/AuDbAJ4B8EcA3jXgPboBwH2rkGN6vUen/x7vns0VPSP7ABye3pv/BWDXRslREXRFMRJqga4oRkJN9qIYCTXZi2Ik1GQvipFQk70oRkJN9qIYCTXZi2Ik1GQvipHw/wHm8OT6webFhAAAAABJRU5ErkJggg==;" vertex="1" parent="1">
                    <mxGeometry x="630" y="230" width="251" height="251" as="geometry"/>
                </mxCell>
                <mxCell id="6" value="&lt;font style=&quot;font-size: 40px&quot;&gt;Spiral&lt;/font&gt;" style="text;html=1;strokeColor=none;fillColor=none;align=center;verticalAlign=middle;whiteSpace=wrap;rounded=0;" vertex="1" parent="1">
                    <mxGeometry x="200" y="190" width="130" height="20" as="geometry"/>
                </mxCell>
                <mxCell id="8" value="&lt;font style=&quot;font-size: 40px&quot;&gt;Ellitptical&lt;/font&gt;" style="text;html=1;strokeColor=none;fillColor=none;align=center;verticalAlign=middle;whiteSpace=wrap;rounded=0;" vertex="1" parent="1">
                    <mxGeometry x="827" y="190" width="130" height="20" as="geometry"/>
                </mxCell>
                <mxCell id="9" value="&lt;span style=&quot;color: rgb(101, 71, 53); font-family: &amp;quot;droid sans mono&amp;quot;, monospace, monospace, &amp;quot;droid sans fallback&amp;quot;; font-size: 14px;&quot;&gt;587727180596969574&lt;/span&gt;" style="text;html=1;strokeColor=none;fillColor=none;align=center;verticalAlign=middle;whiteSpace=wrap;rounded=0;fontStyle=1" vertex="1" parent="1">
                    <mxGeometry x="80" y="481" width="130" height="20" as="geometry"/>
                </mxCell>
                <mxCell id="10" value="&lt;span style=&quot;color: rgb(101, 71, 53); font-family: &amp;quot;droid sans mono&amp;quot;, monospace, monospace, &amp;quot;droid sans fallback&amp;quot;; font-size: 14px;&quot;&gt;587731187814563977&lt;/span&gt;" style="text;html=1;strokeColor=none;fillColor=none;align=center;verticalAlign=middle;whiteSpace=wrap;rounded=0;fontStyle=1" vertex="1" parent="1">
                    <mxGeometry x="330" y="481" width="130" height="20" as="geometry"/>
                </mxCell>
                <mxCell id="11" value="&lt;span style=&quot;color: rgb(101, 71, 53); font-family: &amp;quot;droid sans mono&amp;quot;, monospace, monospace, &amp;quot;droid sans fallback&amp;quot;; font-size: 14px;&quot;&gt;587727220876705819&lt;/span&gt;" style="text;html=1;strokeColor=none;fillColor=none;align=center;verticalAlign=middle;whiteSpace=wrap;rounded=0;fontStyle=1" vertex="1" parent="1">
                    <mxGeometry x="700" y="481" width="130" height="20" as="geometry"/>
                </mxCell>
                <mxCell id="12" value="&lt;span style=&quot;color: rgb(101, 71, 53); font-family: &amp;quot;droid sans mono&amp;quot;, monospace, monospace, &amp;quot;droid sans fallback&amp;quot;; font-size: 14px;&quot;&gt;587731187277758607&lt;/span&gt;" style="text;html=1;strokeColor=none;fillColor=none;align=center;verticalAlign=middle;whiteSpace=wrap;rounded=0;fontStyle=1" vertex="1" parent="1">
                    <mxGeometry x="957" y="481" width="130" height="20" as="geometry"/>
                </mxCell>
                <mxCell id="14" value="" style="shape=singleArrow;direction=south;whiteSpace=wrap;html=1;fillColor=#000000;arrowWidth=0.5095238095238106;arrowSize=0.5222222222222217;" vertex="1" parent="1">
                    <mxGeometry x="550" y="547" width="70" height="75" as="geometry"/>
                </mxCell>
                <mxCell id="15" value="&lt;font style=&quot;font-size: 40px&quot;&gt;1/4&lt;/font&gt;" style="text;html=1;strokeColor=none;fillColor=none;align=center;verticalAlign=middle;whiteSpace=wrap;rounded=0;" vertex="1" parent="1">
                    <mxGeometry x="610" y="565" width="130" height="20" as="geometry"/>
                </mxCell>
                <mxCell id="17" value="" style="shape=image;verticalLabelPosition=bottom;labelBackgroundColor=#ffffff;verticalAlign=top;aspect=fixed;imageAspect=0;image=data:image/png,iVBORw0KGgoAAAANSUhEUgAAAP8AAAD4CAYAAAAjDTByAAAAOXRFWHRTb2Z0d2FyZQBNYXRwbG90bGliIHZlcnNpb24zLjMuNCwgaHR0cHM6Ly9tYXRwbG90bGliLm9yZy8QVMy6AAAACXBIWXMAAAsTAAALEwEAmpwYAAAQeElEQVR4nO3de4xc5XnH8e+P9RXb8YWljsHIQAQIGrWALETSiEY1pYYinEr5w6hpIUSKopYWqlTIKVITVUJKmpZeo0TcUtoiiEqgQRE0uCRRVKm4AdeYiwkYSjGuwTeEwRjbaz/9Y47ReNm1d55z8Trv7yOtdnbmvPs+e2Z/e2bOzjuPIgIzK88Jx7oAMzs2HH6zQjn8ZoVy+M0K5fCbFWpKl5MNDw/HkiVLOpnrePgvRrbGn9ef7eDBg6m59uzZM/AYSam5pk+fnhqXmW9oaGjgMZs2bWLHjh0TmqzT8C9ZsoQ1a9YMPC7zi7Rv376Bx2TnyobxwIEDqXHZkGRkf7b9+/cPPGb37t2pudavXz/wmClTcr/6Z599dmpcZr65c+cOPObSSy+d8LZ+2G9WKIffrFC1wi9puaSfSdooaVVTRZlZ+9LhlzQEfAO4HDgPuFrSeU0VZmbtqnPkvwjYGBEvR8Q+4D5gRTNlmVnb6oT/VGBT39evVdcdRtLnJT0h6Ynt27fXmM7MmtT6Cb+IuC0ilkbE0uHh4banM7MJqhP+zcBpfV8vrq4zs+NAnfD/FDhL0hmSpgErgYeaKcvM2pZ+hV9EjEi6HvgBMATcFRHPNlaZmbWq1st7I+Jh4OGGajGzDvkVfmaF6nRhD+QWioyMjAw8Jrv4JTMuu0AnO65L2RozC6uyc2UWwGRX9WUXjGVWA2Z+7wfJl4/8ZoVy+M0K5fCbFcrhNyuUw29WKIffrFAOv1mhHH6zQjn8ZoVy+M0K5fCbFcrhNytU5wt7Mos3umxPlZkruyAlu7gk0w0nu9Aps7gEci203n777dRcc+bMGXhMtmPPtGnTUuMy2u7M5CO/WaEcfrNCOfxmharTsec0ST+S9JykZyXd0GRhZtauOif8RoAvRsRaSXOAJyWtjojnGqrNzFqUPvJHxJaIWFtdfhvYwBgde8xscmrkOb+k04ELgDVj3PZ+u65t27Y1MZ2ZNaB2+CXNBr4L3BgRu0bf3t+u6+STT647nZk1pFb4JU2lF/x7IuKBZkoysy7UOdsv4E5gQ0Tc2lxJZtaFOkf+XwF+B/g1SeuqjysaqsvMWlanV99/ALkXp5vZMedX+JkVqtNVfRHR2Qq97Gq0LluD7d27NzUuU+Pu3btTc2Xvr0yNU6dOTc01Y8aMgccMDQ2l5sre112txBxkjI/8ZoVy+M0K5fCbFcrhNyuUw29WKIffrFAOv1mhHH6zQjn8ZoVy+M0K5fCbFcrhNytU5+26MgtFMotEsgt7Mospsu26Mos9AHbu3DnwmOzCngULFqTGzZw5c+Ax2cU2J5ww+DEs2yotq8uWcxPlI79ZoRx+s0I5/GaFauKtu4ck/bek7zdRkJl1o4kj/w30uvWY2XGk7vv2LwZ+E7ijmXLMrCt1j/x/DdwE5N7YzMyOmTpNO64EtkbEk0fZ7v1efdu3b89OZ2YNq9u04ypJrwD30Wve8c+jN+rv1Tc8PFxjOjNrUp0W3V+KiMURcTqwEvhhRHymscrMrFX+P79ZoRp5bX9E/Bj4cRPfy8y64SO/WaE6b9eVWW2XWf22b9++gcdk58q2mcrW+N577w08JtPSCvIrDzOyK+0yqwEzKwGh29WA2dZgE+Ujv1mhHH6zQjn8ZoVy+M0K5fCbFcrhNyuUw29WKIffrFAOv1mhHH6zQjn8ZoVy+M0K5fCbFarzVX1drdDbu3fvwGMgt4otu/Jt165dqXEZ2f3x5ptvpsZlVs3NmzcvNdesWbMGHpPpJQj5nnuZ1YDZ3oUT5SO/WaEcfrNCOfxmharbsWeepPslPS9pg6SPNVWYmbWr7gm/vwH+LSI+LWkacGIDNZlZB9LhlzQXuAS4FiAi9gG5N6Uzs87Vedh/BrAN+HbVovsOSR/4n0t/u64dO3bUmM7MmlQn/FOAC4FvRsQFwG5g1eiN+tt1nXTSSTWmM7Mm1Qn/a8BrEbGm+vp+en8MzOw4UKdX3+vAJknnVFctA55rpCoza13ds/1/ANxTnel/Gfhs/ZLMrAu1wh8R64ClzZRiZl3qdGFP1oEDBwYek211lJkr0z4L8jVmFum88MILqbk2bNiQGnfuuecOPGbhwoWpuRYvXjzwmBNPzL0kpct2XVOmDB7PQerzy3vNCuXwmxXK4TcrlMNvViiH36xQDr9ZoRx+s0I5/GaFcvjNCuXwmxXK4TcrlMNvViiH36xQna/qy6yay8i0iwKYOnXqwGMyq68A3n333dS4d955Z+Ax69atS811++23p8bdcsstA48ZHh5OzZVpl5ZdnZdt15X5fcy06/KqPjM7KoffrFAOv1mh6rbr+iNJz0p6RtK9kmY0VZiZtSsdfkmnAn8ILI2IjwJDwMqmCjOzdtV92D8FmClpCr0+ff9XvyQz60Kd9+3fDPwF8CqwBXgrIh4dvZ3bdZlNTnUe9s8HVtDr2XcKMEvSZ0Zv53ZdZpNTnYf9lwL/ExHbImI/8ADw8WbKMrO21Qn/q8DFkk5U72VFy4Dcm7ybWefqPOdfQ68551rg6ep73dZQXWbWsrrtur4MfLmhWsysQ36Fn1mhOl/Vl1lNlRkzbdq0gcdAbtVWtudelzWef/75qbluvfXW1LhFixYNPGb69OmpuTKrKrOrSzMr7SBXY+b3w6v6zOyoHH6zQjn8ZoVy+M0K5fCbFcrhNyuUw29WKIffrFAOv1mhHH6zQjn8ZoVy+M0K1enCnojorF1Xtq1Sto1TxqxZs1LjTjnllIHHfOhDH0rNlV20lBmXbXuWabG2Z8+e1FyzZ89Ojcv8bJmFToO0BfOR36xQDr9ZoRx+s0IdNfyS7pK0VdIzfdctkLRa0ovV5/ntlmlmTZvIkf8fgOWjrlsFPBYRZwGPVV+b2XHkqOGPiJ8AO0ddvQK4u7p8N/CpZssys7Zln/MvjIgt1eXXgYXjbeh2XWaTU+0TftH7h/q4/1R3uy6zySkb/jckLQKoPm9triQz60I2/A8B11SXrwG+10w5ZtaVifyr717gP4FzJL0m6XPAV4Ffl/QivYadX223TDNr2lFfcBwRV49z07KGazGzDvkVfmaF6nRVn6SBVh0dsn///oHHZFcPZlb1ZVe+ZVexZVYDZluD7d69OzUuc5/NmTMnNVdmVV/258r+x2rmzJkDj3G7LjNrhcNvViiH36xQDr9ZoRx+s0I5/GaFcvjNCuXwmxXK4TcrlMNvViiH36xQDr9ZoTpd2AO5hTNdttDKtPnK1pddEJSRWfwCMDQ01HAl48su7Mns/+xcM2bMSI3LLNJpe9/7yG9WKIffrFAOv1mhsu26vi7peUnrJT0oaV6rVZpZ47LtulYDH42IXwJeAL7UcF1m1rJUu66IeDQiRqovHwcWt1CbmbWoief81wGPjHej23WZTU61wi/pZmAEuGe8bdyuy2xySr/IR9K1wJXAssi8MsbMjqlU+CUtB24CfjUi3m22JDPrQrZd198Dc4DVktZJ+lbLdZpZw7Ltuu5soRYz65Bf4WdWqM7bdWVWl2VWbWXbdWVW2mXnGhkZOfpGY8i0PMuMAZg/f35q3PTp0wcek21flpFpn1VnXNuttzJjfOQ3K5TDb1Yoh9+sUA6/WaEcfrNCOfxmhXL4zQrl8JsVyuE3K5TDb1Yoh9+sUA6/WaEcfrNCdb6qr6veb9l3Ftu/f38nYyC/iq2rFWJ1xmVWEWZ/NzL7Mbs6L3ufZfZH2z0qfeQ3K5TDb1aoVLuuvtu+KCkkDbdTnpm1JduuC0mnAZcBrzZck5l1INWuq/JX9N6+2+/Zb3YcSj3nl7QC2BwRT01g2/fbdW3fvj0znZm1YODwSzoR+BPgTyeyfX+7ruFhnxowmywyR/6PAGcAT0l6hV6H3rWSPtxkYWbWroFfsRARTwO/cOjr6g/A0ojwY3qz40i2XZeZHeey7br6bz+9sWrMrDN+hZ9ZoTpd2HPw4MH0IphB7dmzJzUus5hi9uzZqbmyMouWMm3IIL+QJbNIJ7uwJ9MCLjMG8m3P2l6kk+Ejv1mhHH6zQjn8ZoVy+M0K5fCbFcrhNyuUw29WKIffrFAOv1mhHH6zQjn8ZoVy+M0K5fCbFUrZtlapyaRtwP+Oc/MwMBneDch1HM51HG6y17EkIk6eyDfoNPxHIumJiFjqOlyH6+imDj/sNyuUw29WqMkU/tuOdQEV13E413G4n5s6Js1zfjPr1mQ68ptZhxx+s0J1Gn5JyyX9TNJGSavGuH26pO9Ut6+RdHoLNZwm6UeSnpP0rKQbxtjmk5LekrSu+phQX8JkPa9Ierqa54kxbpekv632yXpJFzY8/zl9P+c6Sbsk3Thqm9b2h6S7JG2V9EzfdQskrZb0YvV5/jhjr6m2eVHSNS3U8XVJz1f7/UFJ88YZe8T7sIE6viJpc9/+v2KcsUfM1wdERCcfwBDwEnAmMA14Cjhv1Da/B3yrurwS+E4LdSwCLqwuzwFeGKOOTwLf72i/vAIMH+H2K4BHAAEXA2tavo9ep/dCkU72B3AJcCHwTN91fw6sqi6vAr42xrgFwMvV5/nV5fkN13EZMKW6/LWx6pjIfdhAHV8B/ngC990R8zX6o8sj/0XAxoh4OSL2AfcBK0ZtswK4u7p8P7BMDb/heURsiYi11eW3gQ3AqU3O0bAVwD9Gz+PAPEmLWpprGfBSRIz3KszGRcRPgJ2jru7/Pbgb+NQYQ38DWB0ROyPiTWA1sLzJOiLi0YgYqb58nF5T2laNsz8mYiL5OkyX4T8V2NT39Wt8MHTvb1Pt9LeAk9oqqHpacQGwZoybPybpKUmPSPrFtmoAAnhU0pOSPj/G7RPZb01ZCdw7zm1d7Q+AhRGxpbr8OrBwjG263C8A19F7BDaWo92HTbi+evpx1zhPgwbeH8We8JM0G/gucGNE7Bp181p6D31/Gfg74F9bLOUTEXEhcDnw+5IuaXGucUmaBlwF/MsYN3e5Pw4Tvce0x/T/0ZJuBkaAe8bZpO378JvAR4DzgS3AXzbxTbsM/2bgtL6vF1fXjbmNpCnAXGBH04VImkov+PdExAOjb4+IXRHxTnX5YWCqpOGm66i+/+bq81bgQXoP3/pNZL814XJgbUS8MUaNne2PyhuHntpUn7eOsU0n+0XStcCVwG9Xf4g+YAL3YS0R8UZEHIiIg8Dt43z/gfdHl+H/KXCWpDOqo8xK4KFR2zwEHDpr+2ngh+Pt8KzqHMKdwIaIuHWcbT586FyDpIvo7ac2/gjNkjTn0GV6J5ieGbXZQ8DvVmf9Lwbe6ntI3KSrGechf1f7o0//78E1wPfG2OYHwGWS5lcPgy+rrmuMpOXATcBVEfHuONtM5D6sW0f/OZ7fGuf7TyRfh2viDOUAZzKvoHd2/SXg5uq6P6O3cwFm0HvYuRH4L+DMFmr4BL2HkeuBddXHFcAXgC9U21wPPEvvjOnjwMdb2h9nVnM8Vc13aJ/01yLgG9U+expY2kIds+iFeW7fdZ3sD3p/cLYA++k9T/0cvfM8jwEvAv8OLKi2XQrc0Tf2uup3ZSPw2Rbq2EjvefSh35ND/4k6BXj4SPdhw3X8U3Xfr6cX6EWj6xgvX0f68Mt7zQpV7Ak/s9I5/GaFcvjNCuXwmxXK4TcrlMNvViiH36xQ/w89gTHzN9TxqwAAAABJRU5ErkJggg==;" vertex="1" parent="1">
                    <mxGeometry x="261" y="690" width="258" height="251" as="geometry"/>
                </mxCell>
                <mxCell id="18" value="" style="shape=image;verticalLabelPosition=bottom;labelBackgroundColor=#ffffff;verticalAlign=top;aspect=fixed;imageAspect=0;image=data:image/png,iVBORw0KGgoAAAANSUhEUgAAAP8AAAD4CAYAAAAjDTByAAAAOXRFWHRTb2Z0d2FyZQBNYXRwbG90bGliIHZlcnNpb24zLjMuNCwgaHR0cHM6Ly9tYXRwbG90bGliLm9yZy8QVMy6AAAACXBIWXMAAAsTAAALEwEAmpwYAAAQz0lEQVR4nO3dfYxc5XXH8e/P9vqVlQ2sa4gB24Q3UUQBWYiEiEZ1Sw1FOJXyB4i0EIKiqKWFKhUiRWqi/pU0bfpGlIgSUtoiQCXQoAgaXJIoqihuwLV5TzDUBVwDNi+2a7Dxsqd/zHU0XnbtvWfuvbb7/D7Samdn7rPP2Wfm7J25c88cRQRmVp5pBzsAMzs4nPxmhXLymxXKyW9WKCe/WaFmdDnZyMhILFmypPa4sbGx2mMk1R6THXc4vGOSXY8u/7ZsjBld32ddPa5eeukltm7dOqXJOk3+JUuW8Mgjj9Qet3v37tpjhoaGao8BmDat/pOh999/PzVX9gGYiTG7Hu+9915qXEbm78qOy95nmR0RwIwZ9VMtM9f5558/5W39tN+sUE5+s0INlPySVkr6qaQNkm5sKigza186+SVNB74OXAScDlwu6fSmAjOzdg2y5z8X2BARL0bEe8BdwKpmwjKztg2S/IuBl/t+fqW6bh+SPivpMUmPbdmyZYDpzKxJrR/wi4hbImJ5RCxfuHBh29OZ2RQNkvybgOP7fj6uus7MDgODJP9PgJMlLZM0E7gMuL+ZsMysbekz/CJiVNK1wPeB6cBtEfF0Y5GZWasGOr03Ih4AHmgoFjPrkM/wMytUp4U9kCvCGB4erj1m586dtcdAvrgkI1PsAbkKsWyBTrYAJlNItGfPntRcM2fOTI3L6PLxkbmf64zxnt+sUE5+s0I5+c0K5eQ3K5ST36xQTn6zQjn5zQrl5DcrlJPfrFBOfrNCOfnNCuXkNytU54U92UKRurpsT5Ut0Ml0IgKYPn167THZgpTR0dHUuFmzZqXGdSX7+MiuR2b92y4i8p7frFBOfrNCOfnNCjVIx57jJf1Q0jOSnpZ0XZOBmVm7BjngNwp8PiLWShoGHpe0OiKeaSg2M2tRes8fEZsjYm11eQfwLBN07DGzQ1Mjr/klLQXOBtZMcJvbdZkdggZOfklHAN8Bro+I7eNvd7sus0PTQMkvaYhe4t8REfc2E5KZdWGQo/0CvgU8GxFfay4kM+vCIHv+84HfAn5F0rrq6+KG4jKzlg3Sq+/fgNwJ0mZ20PkMP7NCdV7Vl5GtpMrIVFJlW2G9++67qXFdtqfKtN2C3JpkKiohVyma/bsyFZWQq+Bs+372nt+sUE5+s0I5+c0K5eQ3K5ST36xQTn6zQjn5zQrl5DcrlJPfrFBOfrNCOfnNCuXkNytU54U9mcKZsbGx2mOyBRiZgpRsC7Jt27alxr311lu1xwwPD6fmWrw495mss2fPrj0mW+iUeXxk77NsG7LM43HPnj21x9QpjvKe36xQTn6zQjn5zQrVxEd3T5f0n5K+10RAZtaNJvb819Hr1mNmh5FBP7f/OOA3gFubCcfMujLonv8vgRuA+u+1mNlBNUjTjkuA1yPi8QNs9/NefVu3bs1OZ2YNG7Rpx6WSNgJ30Wve8Y/jN+rv1TcyMjLAdGbWpEFadH8hIo6LiKXAZcAPIuJTjUVmZq3y+/xmhWrk3P6I+BHwoyZ+l5l1w3t+s0J1XtXX6+xdT6YCK9v6KTMuO9f27dtT49avX197zDHHHJOaK9syKlORlp0rU2mXqQQcZNyMGfVTLbOGdXjPb1YoJ79ZoZz8ZoVy8psVyslvVignv1mhnPxmhXLymxXKyW9WKCe/WaGc/GaFcvKbFcrJb1aoTqv6JKV69WUqojI99yBXIZada/78+alxmWqvjRs3pubKrD3AGWecUXtMtqpv165dtcdke+5lqlIhV5ma7Tc5Vd7zmxXKyW9WKCe/WaEG7dizQNI9kp6T9KykjzQVmJm1a9ADfn8F/EtEfFLSTGBuAzGZWQfSyS9pPnABcBVARLwH5A57m1nnBnnavwzYAny7atF9q6R54zfqb9e1ZcuWAaYzsyYNkvwzgHOAb0TE2cBO4MbxG/W361q4cOEA05lZkwZJ/leAVyJiTfXzPfT+GZjZYWCQXn2vAi9LOrW6agXwTCNRmVnrBj3a/3vAHdWR/heBTw8ekpl1YaDkj4h1wPJmQjGzLnVa2DM6Osq2bdtqjzviiCNqjxkaGqo9Jitb/DJv3gfeHJmSBQsW1B5z8803p+Y64YQTUuOuueaa2mPOPPPM1Fxz5sypPWZ0dDQ1V1amSCczpk7hkU/vNSuUk9+sUE5+s0I5+c0K5eQ3K5ST36xQTn6zQjn5zQrl5DcrlJPfrFBOfrNCOfnNCuXkNytUp1V9ABFRe0ymHVa20m5sbKz2mEwrJshVowEsXbq09phs66e77747Ne6ss86qPWbZsmWpuTJVn9nHR6ZVGuTWP9O+zFV9ZnZATn6zQjn5zQo1aLuuP5D0tKSnJN0paXZTgZlZu9LJL2kx8PvA8og4A5gOXNZUYGbWrkGf9s8A5kiaQa9P3/8MHpKZdWGQz+3fBPwZ8BKwGdgWEQ+N366/Xdcbb7yRj9TMGjXI0/4jgVX0evZ9CJgn6VPjt+tv13X00UfnIzWzRg3ytP9Xgf+KiC0RsQe4F/hoM2GZWdsGSf6XgPMkzVXvtKIVwLPNhGVmbRvkNf8aes051wJPVr/rlobiMrOWDdqu64vAFxuKxcw65DP8zArVaVXftGnTmD27/kmA06Z19z8qU0m1a9eu1FzZasDFixfXHnPFFVek5hoeHk6Ny1S/vfnmm6m5Fi1aVHtMtldftjoy45133qk9pk5Vqvf8ZoVy8psVyslvVignv1mhnPxmhXLymxXKyW9WKCe/WaGc/GaFcvKbFcrJb1YoJ79ZoTot7JHErFmzao/LFMBk2m5BrpiiToukfvPmzUuNy7Q8O+2001JzZdYDSBVwbd++PTXXjh07ao+ZO3duaq7M3wW5lnOZ4qM6jw3v+c0K5eQ3K5ST36xQB0x+SbdJel3SU33XHSVptaTnq+9HthummTVtKnv+vwNWjrvuRuDhiDgZeLj62cwOIwdM/oj4MTD+85VWAbdXl28HPtFsWGbWtuxr/kURsbm6/Cow6Yeo9bfr2rp1a3I6M2vawAf8ovfG4qRvLva36xoZGRl0OjNrSDb5X5N0LED1/fXmQjKzLmST/37gyurylcB3mwnHzLoylbf67gT+HThV0iuSPgN8Gfg1Sc/Ta9j55XbDNLOmHfDc/oi4fJKbVjQci5l1yGf4mRWq86q+TOutTIXejBm5Py0zLltBmG39lGkpdsopp3Q2F8Dbb79de0y20i7zmMpWVGZbrA0NDXUyps5aeM9vVignv1mhnPxmhXLymxXKyW9WKCe/WaGc/GaFcvKbFcrJb1YoJ79ZoZz8ZoVy8psVqtPCnohItS3KFMBkWh1Brkgk0z4L8kUimeKjBQsWpOY66aSTUuMyhT1dFkjt3LkzNdecOXNS4zKPkcx6uF2XmR2Qk9+sUE5+s0Jl23V9VdJzkp6QdJ+kBa1GaWaNy7brWg2cERFnAj8DvtBwXGbWslS7roh4KCL2Hk5/FDiuhdjMrEVNvOa/Gnhwshv723Vt2bKlgenMrAkDJb+km4BR4I7Jtulv17Vw4cJBpjOzBqVP8pF0FXAJsCKyZ7mY2UGTSn5JK4EbgF+OiHeaDcnMupBt13UzMAyslrRO0jdbjtPMGpZt1/WtFmIxsw75DD+zQnVa1Qe9ll117dmzp5N5IFcNmG1pla3qy1SxZY/JZqvYMrIxzp49u/aY7OPj3XffTY2bNWtW7TGZ6s06f5f3/GaFcvKbFcrJb1YoJ79ZoZz8ZoVy8psVyslvVignv1mhnPxmhXLymxXKyW9WKCe/WaGc/GaF6rSqT1LrlUqD6rJXX2YtAHbt2lV7TKYSEPJrP3/+/NpjMmsPuarP7HpkY8zc15m/y736zOyAnPxmhUq16+q77fOSQtJIO+GZWVuy7bqQdDxwIfBSwzGZWQdS7boqf0Hv47v9mf1mh6HUa35Jq4BNEbF+Ctu6XZfZIah28kuaC/wR8MdT2d7tuswOTZk9/4eBZcB6SRvpdehdK+mYJgMzs3bVPvMgIp4EfmHvz9U/gOURsbXBuMysZdl2XWZ2mMu26+q/fWlj0ZhZZ3yGn1mhOi3siYhUi6psEUbG2NhYZ3Pt3r07NS6zHtkCney4TCHLjh07UnNlWooNDQ2l5so+PjLjMmvvdl1mdkBOfrNCOfnNCuXkNyuUk9+sUE5+s0I5+c0K5eQ3K5ST36xQTn6zQjn5zQrl5DcrlJPfrFDKtppKTSZtAf57kptHgEPh04Acx74cx74O9TiWRMSUPiyz0+TfH0mPRcRyx+E4HEc3cfhpv1mhnPxmhTqUkv+Wgx1AxXHsy3Hs6/9NHIfMa34z69ahtOc3sw45+c0K1WnyS1op6aeSNki6cYLbZ0m6u7p9jaSlLcRwvKQfSnpG0tOSrptgm49L2iZpXfU1pb6EyXg2SnqymuexCW6XpL+u1uQJSec0PP+pfX/nOknbJV0/bpvW1kPSbZJel/RU33VHSVot6fnq+5GTjL2y2uZ5SVe2EMdXJT1Xrft9khZMMna/92EDcXxJ0qa+9b94krH7za8PiIhOvoDpwAvAicBMYD1w+rhtfgf4ZnX5MuDuFuI4FjinujwM/GyCOD4OfK+jddkIjOzn9ouBBwEB5wFrWr6PXqV3okgn6wFcAJwDPNV33Z8CN1aXbwS+MsG4o4AXq+9HVpePbDiOC4EZ1eWvTBTHVO7DBuL4EvCHU7jv9ptf47+63POfC2yIiBcj4j3gLmDVuG1WAbdXl+8BVij7wfGTiIjNEbG2urwDeBZY3OQcDVsF/H30PAoskHRsS3OtAF6IiMnOwmxcRPwYeHPc1f2Pg9uBT0ww9NeB1RHxZkS8BawGVjYZR0Q8FBGj1Y+P0mtK26pJ1mMqppJf++gy+RcDL/f9/AofTLqfb1Mt+jbg6LYCql5WnA2smeDmj0haL+lBSb/YVgxAAA9JelzSZye4fSrr1pTLgDsnua2r9QBYFBGbq8uvAosm2KbLdQG4mt4zsIkc6D5swrXVy4/bJnkZVHs9ij3gJ+kI4DvA9RGxfdzNa+k99f0l4G+Af24xlI9FxDnARcDvSrqgxbkmJWkmcCnwTxPc3OV67CN6z2kP6vvRkm4CRoE7Jtmk7fvwG8CHgbOAzcCfN/FLu0z+TcDxfT8fV1034TaSZgDzgTeaDkTSEL3EvyMi7h1/e0Rsj4j/rS4/AAxJGmk6jur3b6q+vw7cR+/pW7+prFsTLgLWRsRrE8TY2XpUXtv70qb6/voE23SyLpKuAi4Brqj+EX3AFO7DgUTEaxHxfkSMAX87ye+vvR5dJv9PgJMlLav2MpcB94/b5n5g71HbTwI/mGzBs6pjCN8Cno2Ir02yzTF7jzVIOpfeOrXxT2iepOG9l+kdYHpq3Gb3A79dHfU/D9jW95S4SZczyVP+rtajT//j4ErguxNs833gQklHVk+DL6yua4yklcANwKUR8c4k20zlPhw0jv5jPL85ye+fSn7tq4kjlDWOZF5M7+j6C8BN1XV/Qm9xAWbTe9q5AfgP4MQWYvgYvaeRTwDrqq+Lgc8Bn6u2uRZ4mt4R00eBj7a0HidWc6yv5tu7Jv2xCPh6tWZPAstbiGMevWSe33ddJ+tB7x/OZmAPvdepn6F3nOdh4HngX4Gjqm2XA7f2jb26eqxsAD7dQhwb6L2O3vs42ftO1IeAB/Z3HzYcxz9U9/0T9BL62PFxTJZf+/vy6b1mhSr2gJ9Z6Zz8ZoVy8psVyslvVignv1mhnPxmhXLymxXq/wC4LRHv7FImFQAAAABJRU5ErkJggg==;" vertex="1" parent="1">
                    <mxGeometry x="10" y="690" width="258" height="251" as="geometry"/>
                </mxCell>
                <mxCell id="19" value="" style="shape=image;verticalLabelPosition=bottom;labelBackgroundColor=#ffffff;verticalAlign=top;aspect=fixed;imageAspect=0;image=data:image/png,iVBORw0KGgoAAAANSUhEUgAAAP8AAAD4CAYAAAAjDTByAAAAOXRFWHRTb2Z0d2FyZQBNYXRwbG90bGliIHZlcnNpb24zLjMuNCwgaHR0cHM6Ly9tYXRwbG90bGliLm9yZy8QVMy6AAAACXBIWXMAAAsTAAALEwEAmpwYAAAPN0lEQVR4nO3dfYxc1X3G8e/Drl/AtozB1HGw6UKEkGjUFmMQCZEb1S01LsKJlD+MmtaESFHU0kKVCjlFaqL+lTRt+holokBDWwusEmisCBJckiiqVNyYrQ02JvFCXbBrYwMVTomQ3379Y66r8XrHnjn33uNZzvORVjsz9549v70zz947d++Zo4jAzMpz3rkuwMzODYffrFAOv1mhHH6zQjn8ZoUazdnZwoULY2xsLGeXZkXZs2cPr7/+uvpZN2v4x8bG2Lp168Dtcv47MqWv885LO4DK+XtJfb0eTpNa47D/bqn1Dftzfd111/W9rg/7zQrl8JsVqlb4Ja2S9CNJE5LWN1WUmbUvOfySRoCvADcDVwO3Sbq6qcLMrF119vzXAxMR8XJEHAEeAdY0U5aZta1O+C8FXu26v7d67BSSPiVpq6Sthw4dqtGdmTWp9RN+EXFfRCyPiOWXXHJJ292ZWZ/qhH8fsLTr/pLqMTObBuqE/4fAlZIulzQTWAtsaqYsM2tb8hV+EXFM0p3Ad4AR4MGI2NlYZWbWqlqX90bEE8ATDdViZhn5Cj+zQmUd2JMq58CNlL5OnDiRrS9I+91yD9BJGQAz7IOBIG+NbfOe36xQDr9ZoRx+s0I5/GaFcvjNCuXwmxXK4TcrlMNvViiH36xQDr9ZoRx+s0I5/GaFmhYDe96tUgcE5ewrdQDM8ePHB26TOhtOyu+W+nulyt1fP7znNyuUw29WKIffrFB1ZuxZKul7kl6QtFPSXU0WZmbtqnPC7xjwmYgYlzQPeFbS5oh4oaHazKxFyXv+iNgfEePV7Z8Au5hixh4zG06NvOeXNAZcA2yZYpmn6zIbQrXDL2ku8A3g7og4PHm5p+syG061wi9pBp3gb4iIx5opycxyqHO2X8ADwK6I+HJzJZlZDnX2/DcCvwn8sqRt1dfqhuoys5bVmavvX4Hhu2DZzPriK/zMCpV9VF/KdEc5R0TlnI4pta+cowFzTnuWMhIwVeoIwtR2Kdp+LXrPb1Yoh9+sUA6/WaEcfrNCOfxmhXL4zQrl8JsVyuE3K5TDb1Yoh9+sUA6/WaEcfrNCTYvpulIGOOQc/JIqtcaUATBHjx5N6it1cMno6OAvrZQ2MJxTYU02jK9H7/nNCuXwmxXK4TcrVBMf3T0i6T8kfauJgswsjyb2/HfRma3HzKaRup/bvwT4deD+Zsoxs1zq7vn/ArgHGL7/Y5jZGdWZtOMW4GBEPHuW9TxXn9kQqjtpx62S9gCP0Jm84x8nr+S5+syGU50puj8bEUsiYgxYC3w3Ij7eWGVm1ir/n9+sUI1c2x8R3we+38TPMrM8vOc3K9S0GNWXIudIryNHjiS1O3bsWFK7d955Z+A2hw8fTuordTvOnj174DZz5sxJ6mvWrFkDt8k9yi7nNF/9Gr6KzCwLh9+sUA6/WaEcfrNCOfxmhXL4zQrl8JsVyuE3K5TDb1Yoh9+sUA6/WaEcfrNCOfxmhXrXjupLlTLaK3U+u5TReQBvvPHGwG0OHDiQ1Nfbb7+d1G7RokUDt1myZElSXyMjIwO3mTFjRlJfqc91yuuq7ZGp3vObFcrhNyuUw29WqLoz9lwo6VFJL0raJekDTRVmZu2qe8LvL4FvR8THJM0ELmigJjPLIDn8kuYDK4DbASLiCJD2YXZmll2dw/7LgUPA31VTdN8v6bRPYPR0XWbDqU74R4FlwFcj4hrgbWD95JU8XZfZcKoT/r3A3ojYUt1/lM4fAzObBurM1XcAeFXSVdVDK4EXGqnKzFpX92z/7wIbqjP9LwOfqF+SmeVQK/wRsQ1Y3kwpZpbTtBjYkzKYIud0TMePH09qlzpdV8p/TbZs2XL2laYwMTGR1G7FihUDt5k/f35SX+eff/7AbVIGA0H6tFsp7VIHEfXLl/eaFcrhNyuUw29WKIffrFAOv1mhHH6zQjn8ZoVy+M0K5fCbFcrhNyuUw29WKIffrFAOv1mhpsWovhSpUx2ljtBLkVpjyjRf4+PjSX1t3Lgxqd211147cJsjR9I+/7Xt0W9NGMYavec3K5TDb1Yoh9+sUHWn6/p9STsl7ZD0sKTZTRVmZu1KDr+kS4HfA5ZHxPuBEWBtU4WZWbvqHvaPAudLGqUzT99/1y/JzHKo87n9+4A/BV4B9gNvRcRTk9fzdF1mw6nOYf8CYA2dOfveC8yR9PHJ63m6LrPhVOew/1eA/4yIQxFxFHgM+GAzZZlZ2+qE/xXgBkkXqHOp2kpgVzNlmVnb6rzn30Jncs5x4PnqZ93XUF1m1rK603V9DvhcQ7WYWUa+ws+sUNNiVF/q6LdcUusbHU3b/BdffPHAbVauXJnU1/LlafOwXnbZZQO3mTVrVlJfKfPgDftrCtqv0Xt+s0I5/GaFcvjNCuXwmxXK4TcrlMNvViiH36xQDr9ZoRx+s0I5/GaFcvjNCuXwmxVqWgzsSZE6PVLKIJHUATozZsxIard48eKB29x4441JfaVMDQYwd+7cgdvMmzcvqa/U7Z8i9XWV0s4De8ysFQ6/WaEcfrNCnTX8kh6UdFDSjq7HLpK0WdLu6vuCdss0s6b1s+f/OrBq0mPrgacj4krg6eq+mU0jZw1/RPwAeHPSw2uAh6rbDwEfabYsM2tb6nv+RRGxv7p9AFjUa0VP12U2nGqf8IvOPzB7/hPT03WZDafU8L8maTFA9f1gcyWZWQ6p4d8ErKturwO+2Uw5ZpZLP//qexj4N+AqSXslfRL4AvCrknbTmbDzC+2WaWZNO+tF0RFxW49FabNAmNlQ8BV+ZoXKPqovZaTSMI6IaqKv1FF9c+bMGbhN6si3EydOJLVL6W/mzJlJfaWMxExpcy7atWn4KjKzLBx+s0I5/GaFcvjNCuXwmxXK4TcrlMNvViiH36xQDr9ZoRx+s0I5/GaFcvjNCpV9YE/KIJ3UKZJS5BxElDrYJqW/kZGRpL5SpdSYc9BM6nOWWmOuAW2D8J7frFAOv1mhHH6zQqVO1/UlSS9Kek7S45IubLVKM2tc6nRdm4H3R8TPAz8GPttwXWbWsqTpuiLiqYg4Vt19BljSQm1m1qIm3vPfATzZa6Gn6zIbTrXCL+le4Biwodc6nq7LbDglX+Qj6XbgFmBl5LwKx8wakRR+SauAe4BfioifNluSmeWQOl3X3wDzgM2Stkn6Wst1mlnDUqfreqCFWswsI1/hZ1ao7KP6UuQcEZUyaiv3+c6cU5GlTteVs8aUEYs560vVdo3e85sVyuE3K5TDb1Yoh9+sUA6/WaEcfrNCOfxmhXL4zQrl8JsVyuE3K5TDb1Yoh9+sUA6/WaGmxai+nFJGUqWOvkodDTjsoxxT26WOIEyRc9un9udRfWbWCoffrFBJ03V1LfuMpJC0sJ3yzKwtqdN1IWkpcBPwSsM1mVkGSdN1Vf6czsd3+zP7zaahpPf8ktYA+yJiex/rerousyE0cPglXQD8IfBH/azv6brMhlPKnv99wOXAdkl76MzQOy7pPU0WZmbtGvgin4h4HviZk/erPwDLI+L1Busys5alTtdlZtNc6nRd3cvHGqvGzLLxFX5mhco+sCfXNEmp/aQMLkntazoMEsnZLnUQ0bt16q22p4Hznt+sUA6/WaEcfrNCOfxmhXL4zQrl8JsVyuE3K5TDb1Yoh9+sUA6/WaEcfrNCOfxmhXL4zQqltkcOndKZdAj4rx6LFwLD8GlAruNUruNUw17Hz0ZEXx+WmTX8ZyJpa0Qsdx2uw3XkqcOH/WaFcvjNCjVM4b/vXBdQcR2nch2netfUMTTv+c0sr2Ha85tZRg6/WaGyhl/SKkk/kjQhaf0Uy2dJ2lgt3yJprIUalkr6nqQXJO2UdNcU63xY0luStlVffc1LmFjPHknPV/1snWK5JP1VtU2ek7Ss4f6v6vo9t0k6LOnuSeu0tj0kPSjpoKQdXY9dJGmzpN3V9wU92q6r1tktaV0LdXxJ0ovVdn9c0oU92p7xOWygjs9L2te1/Vf3aHvGfJ0mIrJ8ASPAS8AVwExgO3D1pHV+G/hadXstsLGFOhYDy6rb84AfT1HHh4FvZdoue4CFZ1i+GngSEHADsKXl5+gAnQtFsmwPYAWwDNjR9difAOur2+uBL07R7iLg5er7gur2gobruAkYrW5/cao6+nkOG6jj88Af9PHcnTFfk79y7vmvByYi4uWIOAI8AqyZtM4a4KHq9qPASjX8oewRsT8ixqvbPwF2AZc22UfD1gB/Hx3PABdKWtxSXyuBlyKi11WYjYuIHwBvTnq4+3XwEPCRKZr+GrA5It6MiP8BNgOrmqwjIp6KiGPV3WfoTErbqh7box/95OsUOcN/KfBq1/29nB66/1+n2uhvARe3VVD1tuIaYMsUiz8gabukJyX9XFs1AAE8JelZSZ+aYnk/260pa4GHeyzLtT0AFkXE/ur2AWDRFOvk3C4Ad9A5ApvK2Z7DJtxZvf14sMfboIG3R7En/CTNBb4B3B0RhyctHqdz6PsLwF8D/9xiKR+KiGXAzcDvSFrRYl89SZoJ3Ar80xSLc26PU0TnmPac/j9a0r3AMWBDj1Xafg6/CrwP+EVgP/BnTfzQnOHfByztur+kemzKdSSNAvOBN5ouRNIMOsHfEBGPTV4eEYcj4n+r208AMyQtbLqO6ufvq74fBB6nc/jWrZ/t1oSbgfGIeG2KGrNtj8prJ9/aVN8PTrFOlu0i6XbgFuA3qj9Ep+njOawlIl6LiOMRcQL42x4/f+DtkTP8PwSulHR5tZdZC2yatM4m4ORZ248B3+21wVNV5xAeAHZFxJd7rPOek+caJF1PZzu18UdojqR5J2/TOcG0Y9Jqm4Dfqs763wC81XVI3KTb6HHIn2t7dOl+HawDvjnFOt8BbpK0oDoMvql6rDGSVgH3ALdGxE97rNPPc1i3ju5zPB/t8fP7ydepmjhDOcCZzNV0zq6/BNxbPfbHdDYuwGw6h50TwL8DV7RQw4foHEY+B2yrvlYDnwY+Xa1zJ7CTzhnTZ4APtrQ9rqj62F71d3KbdNci4CvVNnseWN5CHXPohHl+12NZtgedPzj7gaN03qd+ks55nqeB3cC/ABdV6y4H7u9qe0f1WpkAPtFCHRN03keffJ2c/E/Ue4EnzvQcNlzHP1TP/XN0Ar14ch298nWmL1/ea1aoYk/4mZXO4TcrlMNvViiH36xQDr9ZoRx+s0I5/GaF+j868av+pcbVgQAAAABJRU5ErkJggg==;" vertex="1" parent="1">
                    <mxGeometry x="881" y="690" width="258" height="251" as="geometry"/>
                </mxCell>
                <mxCell id="20" value="" style="shape=image;verticalLabelPosition=bottom;labelBackgroundColor=#ffffff;verticalAlign=top;aspect=fixed;imageAspect=0;image=data:image/png,iVBORw0KGgoAAAANSUhEUgAAAP8AAAD4CAYAAAAjDTByAAAAOXRFWHRTb2Z0d2FyZQBNYXRwbG90bGliIHZlcnNpb24zLjMuNCwgaHR0cHM6Ly9tYXRwbG90bGliLm9yZy8QVMy6AAAACXBIWXMAAAsTAAALEwEAmpwYAAAPwklEQVR4nO3df4xc1XnG8e/D2mtqB4HpugYbZHCEkGjUFrCApJEb1S01FHAqRcioaSFEiqKWFqpUyClSE/WvpGnTn1EiSkhpiyAqgQZF0OCSoKhScQOu+WkSDDVg12C7VJA2wmbh7R9zHY2XHXvmnXuPd3Oej7Ta2Zl797x7Zp6dmTtz5lVEYGb1Oe5YF2Bmx4bDb1Yph9+sUg6/WaUcfrNKLSg52NTUVKxatarkkCM7cOBAsbEWLVpUbCxJqf1KvhpUssbS85EZLzPWCy+8wP79+4carGj4V61axZYtW0beLzMJ2Stp586dI+/z1ltvpcZavXp1ar+JiYmR9yl9Y8/st2BB7uaYmf/sfLz99tup/TLXWWasCy+8cOht/bDfrFIOv1mlxgq/pPWSvidph6RNbRVlZt1Lh1/SBPAF4BLgHOAqSee0VZiZdWuce/4LgB0R8XxEHATuBDa0U5aZdW2c8K8EXur7eVdz3mEkfUzSI5Ie2b9//xjDmVmbOj/gFxE3R8SaiFgzNTXV9XBmNqRxwr8bOL3v59Oa88xsHhgn/N8FzpJ0pqRJYCNwbztlmVnX0u/wi4hpSdcB3wQmgFsj4qnWKjOzTo319t6IuA+4r6VazKwgv8PPrFJFF/aUdNxxuf9rK1asGHmfzKINyNeYWZRSemFPZpHO9PR0aqw33nhj5H0mJydTYy1cuDC1X2aRTtcLuHzPb1Yph9+sUg6/WaUcfrNKOfxmlXL4zSrl8JtVyuE3q5TDb1Yph9+sUg6/WaUcfrNKFV/Yk1ngkFkkku2ik2mhle3ikpVZbJOdj+zio5IttDL7Zf+u7HWd2S9b49C/v9PfbmZzlsNvVimH36xS43TsOV3StyU9LekpSde3WZiZdWucA37TwCciYqukE4BHJW2OiKdbqs3MOpS+54+IPRGxtTn9A2A7s3TsMbO5qZXn/JLOAM4Ftsxymdt1mc1BY4df0ruArwE3RMTrMy93uy6zuWms8EtaSC/4t0fE3e2UZGYljHO0X8CXge0R8fn2SjKzEsa55/954DeAX5S0rfm6tKW6zKxj4/Tq+1cg92ZsMzvm/A4/s0rNi3ZdJVdEZVpGZVs4ZVthdb3aqw2ZlXbZ+ViyZElqv4zsqr5SK1NHmcO5fysys044/GaVcvjNKuXwm1XK4TerlMNvVimH36xSDr9ZpRx+s0o5/GaVcvjNKuXwm1Wq+MKezKKUbBunjMwCjOyClOx+mcUlJRekQG5RSsnrOdu+LFtj5rrOzP0o9fme36xSDr9ZpRx+s0q18dHdE5L+Q9I32ijIzMpo457/enrdesxsHhn3c/tPA34VuKWdcsyslHHv+f8cuBHIvY5kZsfMOE07LgP2RsSjR9nOvfrM5qBxm3ZcIWkncCe95h3/MHMj9+ozm5vGadH9yYg4LSLOADYC34qID7dWmZl1yq/zm1Wqlff2R8RDwENt/C4zK8P3/GaVKr6qL7O6aWJiosg4kFt1mF0hll1pl5Ft8fXmm2+m9svMyfHHH19srOzcZ26LkLs9Zube7brM7KgcfrNKOfxmlXL4zSrl8JtVyuE3q5TDb1Yph9+sUg6/WaUcfrNKOfxmlXL4zSrl8JtVqviqvoxMf7TsSruM6enp1H7Zvm8HDx4ssg/kV78tWbJk5H2y11lmxeLChQtTY2Vl5tG9+sysEw6/WaUcfrNKjdux5yRJd0l6RtJ2Se9tqzAz69a4B/z+AvjniPiQpElgcQs1mVkB6fBLOhFYC1wDEBEHgdwhZTMrbpyH/WcC+4CvNC26b5H0jtd33K7LbG4aJ/wLgPOAL0bEucD/AZtmbuR2XWZz0zjh3wXsiogtzc930ftnYGbzwDi9+l4GXpJ0dnPWOuDpVqoys86Ne7T/d4DbmyP9zwMfGb8kMythrPBHxDZgTTulmFlJxRf2ZBazZBZFlGxPlV2gk20pduDAgZH3eeihh1Jj7dq1K7Xf5ZdfPvI+K1asSI2Vmf/s3JdcfNS1uVeRmRXh8JtVyuE3q5TDb1Yph9+sUg6/WaUcfrNKOfxmlXL4zSrl8JtVyuE3q5TDb1Yph9+sUkVX9UlKrW7KrMDKrrTLtEjKtuvKyqxy3LFjR2qsTZve8clsQzn//PNH3mfZsmWpsSYmJkbeJ7uqL7s6L3N77HoloO/5zSrl8JtVyuE3q9S47bp+T9JTkp6UdIek49sqzMy6lQ6/pJXA7wJrIuI9wASwsa3CzKxb4z7sXwD8hKQF9Pr0/df4JZlZCeN8bv9u4E+AF4E9wGsR8cDM7frbde3bty9fqZm1apyH/UuBDfR69q0Alkj68Mzt+tt1ZV/HNbP2jfOw/5eA/4yIfRHxJnA38L52yjKzro0T/heBiyQtVu/tS+uA7e2UZWZdG+c5/xZ6zTm3Ak80v+vmluoys46N267rU8CnWqrFzAryO/zMKlW8V19mpVKmP1p21VZ2NWBGZgUhwOLFi0fe58orr0yNtXbt2tR+K1euHHmfycnJ1Fgle/Vlbx+Z231m9eYofM9vVimH36xSDr9ZpRx+s0o5/GaVcvjNKuXwm1XK4TerlMNvVimH36xSDr9ZpRx+s0oVX9jT9WKF+SQ7F5kFMKecckpqrOXLl6f2yyxkybTdgtxim+zcZ1toZcZzuy4z64TDb1Yph9+sUkcNv6RbJe2V9GTfeSdL2izp2eb70m7LNLO2DXPP/7fA+hnnbQIejIizgAebn81sHjlq+CPiO8CrM87eANzWnL4N+GC7ZZlZ17LP+ZdHxJ7m9MvAwNeD3K7LbG4a+4Bf9D4JceCnIbpdl9nclA3/K5JOBWi+722vJDMrIRv+e4Grm9NXA19vpxwzK2WYl/ruAP4NOFvSLkkfBT4D/LKkZ+k17PxMt2WaWduO+t7+iLhqwEXrWq7FzAryO/zMKlV8VV9mBdb09PTI+2RbYWXaOM2H1k/ZGrMryzLjlVwxNx9k2tSNwvf8ZpVy+M0q5fCbVcrhN6uUw29WKYffrFIOv1mlHH6zSjn8ZpVy+M0q5fCbVcrhN6tU0YU9EZFarFByIUtGdoFOVsnWT9m/LdN6K7uQJbPfokWLio0FuXl0uy4z64TDb1Yph9+sUtl2XZ+T9IykxyXdI+mkTqs0s9Zl23VtBt4TET8DfB/4ZMt1mVnHUu26IuKBiDj02VoPA6d1UJuZdaiN5/zXAvcPurC/Xdf+/ftbGM7M2jBW+CXdBEwDtw/apr9d19TU1DjDmVmL0m/ykXQNcBmwLkq+o8bMWpEKv6T1wI3AL0TED9stycxKyLbr+mvgBGCzpG2SvtRxnWbWsmy7ri93UIuZFeR3+JlVqni7rozMCrFsC6eSbabmg+zfVmr1JuSus0wLOCi7grPrNmQ/vrdaMzsih9+sUg6/WaUcfrNKOfxmlXL4zSrl8JtVyuE3q5TDb1Yph9+sUg6/WaUcfrNKOfxmlSq6qk9SsVVR2XEy+2VXiGVXsWX2y64QK9mbLiszVvaT50rerrrme36zSjn8ZpVKtevqu+wTkkKSP5PbbJ7JtutC0unAxcCLLddkZgWk2nU1/ozex3f7M/vN5qHUc35JG4DdEfHYENv+qF3Xvn37MsOZWQdGDr+kxcAfAH84zPb97bqWLVs26nBm1pHMPf+7gTOBxyTtpNehd6ukU9oszMy6NfKbfCLiCeCnDv3c/ANYExFuwWs2j2TbdZnZPJdt19V/+RmtVWNmxfgdfmaVmhftujKLUrILNzKLdEou0IHcfGQX9pSsMavkQqfsfBw8eHDkfSYnJ1NjDcv3/GaVcvjNKuXwm1XK4TerlMNvVimH36xSDr9ZpRx+s0o5/GaVcvjNKuXwm1XK4TerlMNvVillV7+lBpP2AS8MuHgKmAufBuQ6Duc6DjfX61gVEUN9WGbR8B+JpEciYo3rcB2uo0wdfthvVimH36xScyn8Nx/rAhqu43Cu43A/NnXMmef8ZlbWXLrnN7OCHH6zShUNv6T1kr4naYekTbNcvkjSV5vLt0g6o4MaTpf0bUlPS3pK0vWzbPMBSa9J2tZ8DdWXMFnPTklPNOM8MsvlkvSXzZw8Lum8lsc/u+/v3CbpdUk3zNims/mQdKukvZKe7DvvZEmbJT3bfF86YN+rm22elXR1B3V8TtIzzbzfI+mkAfse8TpsoY5PS9rdN/+XDtj3iPl6h4go8gVMAM8Bq4FJ4DHgnBnb/Bbwpeb0RuCrHdRxKnBec/oE4Puz1PEB4BuF5mUnMHWEyy8F7gcEXARs6fg6epneG0WKzAewFjgPeLLvvD8GNjWnNwGfnWW/k4Hnm+9Lm9NLW67jYmBBc/qzs9UxzHXYQh2fBn5/iOvuiPma+VXynv8CYEdEPB8RB4E7gQ0zttkA3NacvgtYJ0ltFhEReyJia3P6B8B2YGWbY7RsA/B30fMwcJKkUzsaax3wXEQMehdm6yLiO8CrM87uvx3cBnxwll1/BdgcEa9GxP8Am4H1bdYREQ9ExKFGDg/Ta0rbqQHzMYxh8nWYkuFfCbzU9/Mu3hm6H23TTPprwE92VVDztOJcYMssF79X0mOS7pf0013VAATwgKRHJX1slsuHmbe2bATuGHBZqfkAWB4Re5rTLwPLZ9mm5LwAXEvvEdhsjnYdtuG65unHrQOeBo08H9Ue8JP0LuBrwA0R8fqMi7fSe+j7s8BfAf/UYSnvj4jzgEuA35a0tsOxBpI0CVwB/OMsF5ecj8NE7zHtMX09WtJNwDRw+4BNur4Ovwi8G/g5YA/wp2380pLh3w2c3vfzac15s24jaQFwIvDfbRciaSG94N8eEXfPvDwiXo+I/21O3wcslDTVdh3N79/dfN8L3EPv4Vu/YeatDZcAWyPilVlqLDYfjVcOPbVpvu+dZZsi8yLpGuAy4Nebf0TvMMR1OJaIeCUi3oqIt4G/GfD7R56PkuH/LnCWpDObe5mNwL0ztrkXOHTU9kPAtwZNeFZzDOHLwPaI+PyAbU45dKxB0gX05qmLf0JLJJ1w6DS9A0xPztjsXuA3m6P+FwGv9T0kbtNVDHjIX2o++vTfDq4Gvj7LNt8ELpa0tHkYfHFzXmskrQduBK6IiB8O2GaY63DcOvqP8fzagN8/TL4O18YRyhGOZF5K7+j6c8BNzXl/RG9yAY6n97BzB/DvwOoOang/vYeRjwPbmq9LgY8DH2+2uQ54it4R04eB93U0H6ubMR5rxjs0J/21CPhCM2dPAGs6qGMJvTCf2Hdekfmg9w9nD/AmveepH6V3nOdB4FngX4CTm23XALf07Xttc1vZAXykgzp20Hsefeh2cuiVqBXAfUe6Dluu4++b6/5xeoE+dWYdg/J1pC+/vdesUtUe8DOrncNvVimH36xSDr9ZpRx+s0o5/GaVcvjNKvX/Z88I/n1CASoAAAAASUVORK5CYII=;" vertex="1" parent="1">
                    <mxGeometry x="630" y="690" width="258" height="251" as="geometry"/>
                </mxCell>
                <mxCell id="21" value="&lt;span style=&quot;color: rgb(101, 71, 53); font-family: &amp;quot;droid sans mono&amp;quot;, monospace, monospace, &amp;quot;droid sans fallback&amp;quot;; font-size: 14px;&quot;&gt;587727180596969574&lt;/span&gt;" style="text;html=1;strokeColor=none;fillColor=none;align=center;verticalAlign=middle;whiteSpace=wrap;rounded=0;fontStyle=1" vertex="1" parent="1">
                    <mxGeometry x="80" y="941" width="130" height="20" as="geometry"/>
                </mxCell>
                <mxCell id="22" value="&lt;span style=&quot;color: rgb(101, 71, 53); font-family: &amp;quot;droid sans mono&amp;quot;, monospace, monospace, &amp;quot;droid sans fallback&amp;quot;; font-size: 14px;&quot;&gt;587731187814563977&lt;/span&gt;" style="text;html=1;strokeColor=none;fillColor=none;align=center;verticalAlign=middle;whiteSpace=wrap;rounded=0;fontStyle=1" vertex="1" parent="1">
                    <mxGeometry x="330" y="941" width="130" height="20" as="geometry"/>
                </mxCell>
                <mxCell id="23" value="&lt;span style=&quot;color: rgb(101, 71, 53); font-family: &amp;quot;droid sans mono&amp;quot;, monospace, monospace, &amp;quot;droid sans fallback&amp;quot;; font-size: 14px;&quot;&gt;587727220876705819&lt;/span&gt;" style="text;html=1;strokeColor=none;fillColor=none;align=center;verticalAlign=middle;whiteSpace=wrap;rounded=0;fontStyle=1" vertex="1" parent="1">
                    <mxGeometry x="700" y="941" width="130" height="20" as="geometry"/>
                </mxCell>
                <mxCell id="24" value="&lt;span style=&quot;color: rgb(101, 71, 53); font-family: &amp;quot;droid sans mono&amp;quot;, monospace, monospace, &amp;quot;droid sans fallback&amp;quot;; font-size: 14px;&quot;&gt;587731187277758607&lt;/span&gt;" style="text;html=1;strokeColor=none;fillColor=none;align=center;verticalAlign=middle;whiteSpace=wrap;rounded=0;fontStyle=1" vertex="1" parent="1">
                    <mxGeometry x="957" y="941" width="130" height="20" as="geometry"/>
                </mxCell>
            </root>
        </mxGraphModel>
    </diagram>
</mxfile>